<?xml version="1.0" encoding="UTF-8"?>
<svg version="1.1" xmlns="http://www.w3.org/2000/svg" width="1536" height="1024">
<path d="M0 0 C506.88 0 1013.76 0 1536 0 C1536 337.92 1536 675.84 1536 1024 C1029.12 1024 522.24 1024 0 1024 C0 686.08 0 348.16 0 0 Z " fill="#CCE5FC" transform="translate(0,0)"/>
<path d="M0 0 C3.21020797 1.90529519 6.13805911 3.86303515 9.046875 6.21484375 C9.046875 6.87484375 9.046875 7.53484375 9.046875 8.21484375 C9.61067871 8.18801514 10.17448242 8.16118652 10.75537109 8.13354492 C18.27509853 7.93866705 25.31185393 9.05844319 32.671875 10.52734375 C33.31327423 10.65533356 33.95467346 10.78332336 34.61550903 10.91519165 C75.85958717 19.29555322 115.76087304 38.12102475 146.640625 66.984375 C148.68166088 68.87630923 150.76331471 70.68165427 152.87890625 72.48828125 C156.98794459 76.06898734 160.59639003 79.97827041 164.234375 84.02734375 C170.64604029 91.02496938 177.35128473 96.67829408 185.046875 102.21484375 C191.01169462 106.53933798 194.81765399 111.05225972 197.046875 118.21484375 C197.19222338 120.4408272 197.27167069 122.67176239 197.296875 124.90234375 C197.62676644 133.17637762 201.35690505 138.48924544 205.73681641 145.16064453 C219.80260465 167.21609407 226.33318579 189.98405922 226.4375 215.984375 C226.57331792 223.4166333 227.38708274 229.58962309 230.09619141 236.53564453 C237.61004386 257.7110469 230.22207417 287.91353962 222.74902344 308.26416016 C221.95222166 310.47780626 221.22128992 312.70847626 220.4921875 314.9453125 C210.39733621 345.50245994 194.00641025 372.72336839 172.49853516 396.59570312 C171.210496 398.03234552 169.94529887 399.48939464 168.68359375 400.94921875 C156.09600945 415.40077806 141.15445219 427.24963644 125.296875 437.90234375 C124.50966064 438.43214844 123.72244629 438.96195313 122.91137695 439.5078125 C122.17749756 439.9925 121.44361816 440.4771875 120.6875 440.9765625 C120.03297852 441.40928467 119.37845703 441.84200684 118.70410156 442.2878418 C117.046875 443.21484375 117.046875 443.21484375 115.046875 443.21484375 C119.336875 452.45484375 123.626875 461.69484375 128.046875 471.21484375 C131.31585693 471.27019287 134.58483887 471.32554199 137.95288086 471.38256836 C148.93694112 471.56877125 159.92097194 471.75667054 170.9049902 471.94533443 C177.543499 472.0593291 184.18201621 472.17276969 190.82055664 472.28491211 C221.89934615 472.810312 252.97453371 473.38637619 284.046875 474.21484375 C283.42605545 473.25873703 282.8052359 472.30263031 282.16560364 471.31755066 C281.34443209 470.04794753 280.52336737 468.77827529 279.70239258 467.50854492 C279.29398384 466.88018486 278.8855751 466.2518248 278.46479034 465.60442352 C275.52951427 461.05812935 272.94017142 456.47462126 270.734375 451.52734375 C270.40735596 450.80732178 270.08033691 450.0872998 269.7434082 449.34545898 C268.82870301 447.30844135 267.93440813 445.26381378 267.046875 443.21484375 C266.6240625 442.2609375 266.20125 441.30703125 265.765625 440.32421875 C259.2908223 424.33341815 259.57701872 407.15456286 260.046875 390.21484375 C260.06210205 389.13879883 260.06210205 389.13879883 260.07763672 388.04101562 C260.32091046 371.39596996 266.55655883 352.52773288 278.046875 340.21484375 C287.84595891 330.96879456 297.55618589 326.47382731 311.046875 326.21484375 C310.67175781 324.98636719 310.29664063 323.75789063 309.91015625 322.4921875 C302.99926827 299.08229184 299.57991052 276.18250611 299.609375 251.83984375 C299.60915344 250.97450012 299.60893188 250.10915649 299.60870361 249.21759033 C299.61551871 246.72925049 299.64083205 244.241998 299.67578125 241.75390625 C299.68137558 241.02381348 299.68696991 240.2937207 299.69273376 239.54150391 C299.81190305 234.23757588 300.7717334 229.353644 302.046875 224.21484375 C302.25828125 223.22097656 302.4696875 222.22710937 302.6875 221.203125 C308.35300415 196.32575101 323.11383245 178.86911833 344.2265625 165.1484375 C369.15461627 150.16227811 403.82582917 138.78708068 433.046875 139.15234375 C433.995625 139.16136719 434.944375 139.17039062 435.921875 139.1796875 C436.97375 139.19708984 436.97375 139.19708984 438.046875 139.21484375 C442.80711853 147.79955644 447.40343281 156.10610479 450.2265625 165.5546875 C450.99457156 168.04523118 451.93247151 170.33356616 452.984375 172.71484375 C465.03591258 202.48642868 466.60403936 242.35305146 458.046875 273.21484375 C457.84368652 273.95202637 457.64049805 274.68920898 457.43115234 275.44873047 C456.11670617 280.09310696 454.63187753 284.65607455 453.046875 289.21484375 C452.67175781 290.30023437 452.29664063 291.385625 451.91015625 292.50390625 C449.47075632 299.37775438 449.47075632 299.37775438 447.9609375 302.359375 C446.70113087 304.91667477 446.56551611 306.39545597 447.046875 309.21484375 C448.7728779 312.35842626 448.7728779 312.35842626 452.046875 314.21484375 C455.53637406 314.07183149 458.7014292 313.1662049 462.046875 312.21484375 C475.19830626 308.96566662 488.24500642 311.24214112 500.078125 317.3828125 C508.46744474 322.55990586 515.55683649 330.65550006 518.359375 340.21484375 C518.58625 341.20484375 518.813125 342.19484375 519.046875 343.21484375 C524.48382498 337.92483837 527.03787911 334.81972671 528.53125 327.44921875 C530.29066879 319.82507067 535.53412376 313.59273294 541.921875 309.27734375 C549.13921497 305.60150732 558.44176661 305.87291871 566.08984375 308.1015625 C571.69408994 310.65357173 575.64040046 314.11577718 579.046875 319.21484375 C579.459375 319.82199219 579.871875 320.42914062 580.296875 321.0546875 C583.55307327 326.58344081 583.91207454 331.92248343 583.046875 338.21484375 C581.38926931 344.45524163 579.08785634 349.03451776 574.046875 353.21484375 C573.221875 353.93671875 572.396875 354.65859375 571.546875 355.40234375 C564.47023896 360.53290488 555.45632181 360.2831792 547.046875 359.21484375 C543.76814076 358.07318377 541.54865126 356.59347558 539.046875 354.21484375 C538.098125 353.34859375 537.149375 352.48234375 536.171875 351.58984375 C534.046875 349.21484375 534.046875 349.21484375 532.046875 346.21484375 C529.13246801 345.54762839 529.13246801 345.54762839 526.046875 346.21484375 C523.25448499 348.92658712 522.13940071 350.57487425 521.578125 354.45703125 C521.5678125 355.65585937 521.5575 356.8546875 521.546875 358.08984375 C521.28021352 366.18157155 519.40881364 373.47064773 517.046875 381.21484375 C516.66267298 382.4921612 516.27855799 383.76950484 515.89453125 385.046875 C514.96241253 388.10860302 514.01407434 391.1640501 513.046875 394.21484375 C517.12363567 392.31785396 520.39713571 390.27183367 523.796875 387.33984375 C534.28739288 378.72206582 543.72438244 376.51510418 557.046875 377.21484375 C565.81241501 378.3965684 571.94153403 384.36810697 577.49609375 390.92578125 C583.70605893 399.65205203 583.04490395 411.01369608 582.046875 421.21484375 C579.2219919 433.40782756 570.51802429 443.64819081 560.046875 450.21484375 C546.05318557 457.76670475 528.21967297 463.84659367 512.046875 463.21484375 C514.03967363 466.77697131 516.19939959 469.55265299 519.046875 472.46484375 C521.98648132 475.63792061 523.47474332 477.87579411 524.421875 482.08984375 C524.89814687 484.34030277 524.89814687 484.34030277 526.046875 486.21484375 C529.27333209 487.87281109 532.4803989 488.6326985 536.046875 489.21484375 C536.046875 491.52484375 536.046875 493.83484375 536.046875 496.21484375 C500.31669059 501.27268961 464.07318412 502.26514889 428.046875 503.33984375 C426.77224396 503.37836456 425.49761292 503.41688538 424.18435669 503.45657349 C379.16711218 504.7874021 334.11999728 505.36625634 289.0859375 505.765625 C287.94137352 505.77592436 286.79680955 505.78622372 285.61756182 505.79683518 C200.10540277 506.55769168 114.58613428 506.40270631 29.07146326 506.40003206 C10.77712687 506.3996466 -7.51719204 506.4075426 -25.81152344 506.4206543 C-213.88047129 506.55280926 -213.88047129 506.55280926 -290.1569714 505.35932997 C-292.1389984 505.32851468 -294.12103788 505.29850556 -296.10307741 505.26850677 C-320.13136317 504.90374295 -344.14682629 504.44008455 -368.15087891 503.26245117 C-368.9396444 503.22451403 -369.7284099 503.18657689 -370.54107738 503.14749014 C-425.13935329 500.45695793 -425.13935329 500.45695793 -436.34619141 492.52001953 C-438.55086646 489.35737264 -438.24261468 486.97820959 -437.953125 483.21484375 C-437.04022705 483.16473145 -436.1273291 483.11461914 -435.18676758 483.06298828 C-431.78510658 482.87219241 -428.38406689 482.67376262 -424.9831543 482.47021484 C-423.51392906 482.3838374 -422.04452379 482.30046566 -420.57495117 482.22021484 C-418.45696877 482.10402346 -416.33987915 481.97687224 -414.22265625 481.84765625 C-412.95010986 481.77434082 -411.67756348 481.70102539 -410.36645508 481.62548828 C-407.1380478 481.2370911 -404.88284875 480.56338416 -401.953125 479.21484375 C-398.5571834 477.75369869 -395.55871984 476.865594 -391.890625 476.3984375 C-390.92769531 476.27404297 -389.96476562 476.14964844 -388.97265625 476.02148438 C-387.47798828 475.83875977 -387.47798828 475.83875977 -385.953125 475.65234375 C-384.98761719 475.52666016 -384.02210938 475.40097656 -383.02734375 475.27148438 C-369.8366568 473.60299351 -356.66848852 472.98688384 -343.390625 472.65234375 C-342.5921817 472.63116486 -341.7937384 472.60998596 -340.97109985 472.58816528 C-325.96283575 472.19320605 -310.96660098 472.09470637 -295.953125 472.21484375 C-297.13716726 469.57629272 -298.34793939 466.95678404 -299.578125 464.33984375 C-299.90941406 463.59347656 -300.24070312 462.84710937 -300.58203125 462.078125 C-302.77845316 457.47026649 -302.77845316 457.47026649 -307 454.72265625 C-313.0230069 453.60724474 -313.0230069 453.60724474 -318.73046875 455.20703125 C-326.68131581 458.8121605 -338.24643296 456.21958476 -346.07421875 453.47265625 C-353.35370145 450.29220384 -358.81219882 445.64689443 -361.953125 438.21484375 C-362.265625 434.71484375 -362.265625 434.71484375 -361.953125 432.21484375 C-362.5925 431.90546875 -363.231875 431.59609375 -363.890625 431.27734375 C-365.953125 430.21484375 -365.953125 430.21484375 -366.953125 429.21484375 C-368.79471316 429.25722783 -370.63635973 429.30511807 -372.47680664 429.38256836 C-383.48508715 429.77827935 -391.94179614 427.86660743 -400.578125 420.58984375 C-404.05774545 417.34513438 -405.84643862 415.1750212 -406.390625 410.27734375 C-406.30494226 406.94183715 -406.14724406 406.42560159 -403.765625 403.83984375 C-395.54618503 399.09083399 -386.65307994 398.7209298 -377.48046875 401.125 C-370.63379564 403.7635568 -366.28645706 406.54817964 -362.953125 413.21484375 C-362.98442233 415.00732699 -363.05181729 416.79928828 -363.140625 418.58984375 C-363.28396065 423.05946297 -363.28396065 423.05946297 -360.953125 426.77734375 C-359.963125 427.48890625 -359.963125 427.48890625 -358.953125 428.21484375 C-358.953125 428.87484375 -358.953125 429.53484375 -358.953125 430.21484375 C-358.40140625 430.05886719 -357.8496875 429.90289063 -357.28125 429.7421875 C-345.52094935 427.07836101 -334.07506527 430.86148616 -324.0390625 436.99609375 C-320.15650706 439.87955512 -316.8985694 442.67547349 -314.953125 447.21484375 C-314.953125 447.87484375 -314.953125 448.53484375 -314.953125 449.21484375 C-312.313125 449.54484375 -309.673125 449.87484375 -306.953125 450.21484375 C-312.02131847 437.77017067 -318.9538318 425.92659211 -326.328125 414.71484375 C-326.72008057 414.11091797 -327.11203613 413.50699219 -327.51586914 412.88476562 C-331.78143606 406.56486976 -337.58174795 403.08354309 -343.890625 399.08984375 C-363.07318622 386.82166055 -363.07318622 386.82166055 -368.83984375 381.4609375 C-372.04684521 379.56993294 -375.33206593 379.81488837 -378.953125 379.77734375 C-394.76528772 379.18871825 -407.17734654 372.91219324 -418.0703125 361.4140625 C-421.4244718 357.49623743 -423.6504608 354.18216108 -424.453125 348.96484375 C-423.953125 346.21484375 -423.953125 346.21484375 -422.29296875 344.5703125 C-416.81832996 341.39886065 -409.51351425 342.66618891 -403.5625 343.94140625 C-391.37260192 347.49438602 -380.73723122 352.35025037 -373.57421875 363.328125 C-371.9273825 366.45772157 -370.98826823 368.92960356 -370.55078125 372.48046875 C-368.90991237 378.32659904 -362.68214431 380.89147646 -357.828125 383.83984375 C-356.8071875 384.48179687 -355.78625 385.12375 -354.734375 385.78515625 C-351.8185876 387.61408202 -348.88785987 389.41653375 -345.953125 391.21484375 C-344.37122211 392.1999406 -342.79032784 393.18666108 -341.2109375 394.17578125 C-340.13585937 394.84867188 -339.06078125 395.5215625 -337.953125 396.21484375 C-338.30503906 395.66699219 -338.65695312 395.11914062 -339.01953125 394.5546875 C-345.72730464 383.78371979 -353.53758246 370.19513361 -355.33984375 357.48828125 C-355.54222656 356.73804688 -355.74460937 355.9878125 -355.953125 355.21484375 C-357.81612684 354.53738854 -359.68369055 353.87030648 -361.5703125 353.26171875 C-372.75929691 348.34590265 -379.73134528 336.0805986 -384.17578125 325.24609375 C-384.43230469 324.57578125 -384.68882812 323.90546875 -384.953125 323.21484375 C-385.365625 322.14234375 -385.778125 321.06984375 -386.203125 319.96484375 C-387.31099615 314.42548798 -387.47024142 308.84228715 -386.953125 303.21484375 C-384.953125 300.21484375 -384.953125 300.21484375 -382.95703125 299.7109375 C-372.94838984 299.47073011 -364.99734721 304.49948088 -357.80078125 311.1640625 C-354.22978317 315.12764387 -351.57169651 319.58731526 -348.953125 324.21484375 C-348.31375 325.28734375 -347.674375 326.35984375 -347.015625 327.46484375 C-345.28946795 333.55716276 -345.09434188 339.9464032 -345.953125 346.21484375 C-346.68402344 347.15199219 -347.41492188 348.08914063 -348.16796875 349.0546875 C-350.19286575 351.93122848 -350.19286575 351.93122848 -349.73583984 354.39770508 C-347.79908974 361.19117662 -344.6994704 367.61647608 -341.640625 373.96484375 C-341.12298584 375.04306396 -340.60534668 376.12128418 -340.07202148 377.23217773 C-334.9619882 387.61860334 -328.89978456 397.27557934 -322.48486328 406.89501953 C-320.24041194 410.29425075 -318.09570427 413.75067352 -315.953125 417.21484375 C-315.89967622 412.58855457 -315.89026948 407.96575638 -315.93652344 403.33935547 C-315.95108196 401.47629247 -315.94229005 399.61307726 -315.9296875 397.75 C-316.14788091 389.7264333 -318.46768338 384.21548068 -322.26171875 377.30859375 C-326.46917365 369.61274091 -327.16388343 362.46752852 -327.265625 353.83984375 C-327.30913086 352.62167969 -327.30913086 352.62167969 -327.35351562 351.37890625 C-327.42263476 344.74346914 -325.86255246 339.60584171 -321.49731445 334.51806641 C-319.953125 333.21484375 -319.953125 333.21484375 -317.078125 332.77734375 C-312.30901062 333.44501976 -310.33851329 335.44618814 -307.4140625 339.1796875 C-301.42368038 348.04722359 -298.34439474 360.51407619 -299.953125 371.21484375 C-302.49557461 382.93596736 -302.49557461 382.93596736 -307.03515625 387.07421875 C-312.02684752 392.64046012 -311.0716791 400.79057987 -311.015625 407.83984375 C-311.01836426 408.61719879 -311.02110352 409.39455383 -311.02392578 410.19546509 C-310.99723859 424.56559082 -307.57215421 435.50121629 -298.953125 447.21484375 C-296.40500455 442.7879325 -295.61749889 439.79479974 -295.8359375 434.70703125 C-295.86816406 433.47210937 -295.90039062 432.2371875 -295.93359375 430.96484375 C-296.02908635 428.40460967 -296.13309641 425.84467749 -296.24609375 423.28515625 C-296.50784555 412.31434164 -294.32275592 403.58041898 -286.953125 395.21484375 C-283.73733583 393.0709843 -281.721169 392.74285665 -277.890625 392.8203125 C-275.953125 393.21484375 -275.953125 393.21484375 -273.515625 395.58984375 C-269.29544899 402.67973945 -269.92172415 412.61896433 -271.70703125 420.57421875 C-274.72385891 429.13964316 -279.30587172 436.11667489 -286.953125 441.21484375 C-288.60862031 441.59984266 -290.2753683 441.9427751 -291.953125 442.21484375 C-292.48916319 443.6049089 -293.00629973 445.00227024 -293.515625 446.40234375 C-293.80566406 447.17964844 -294.09570312 447.95695312 -294.39453125 448.7578125 C-295.64311764 454.24984633 -293.06912774 458.22601911 -290.453125 462.96484375 C-289.8240625 464.1146875 -289.195 465.26453125 -288.546875 466.44921875 C-287.21161735 469.04288509 -287.21161735 469.04288509 -285.953125 470.21484375 C-284.1941907 470.3111642 -282.43135341 470.33671885 -280.66978455 470.33509827 C-278.95123512 470.33716026 -278.95123512 470.33716026 -277.19796753 470.33926392 C-275.92986237 470.33566864 -274.6617572 470.33207336 -273.35522461 470.32836914 C-272.01519269 470.32808727 -270.67516061 470.328245 -269.33512878 470.32881165 C-265.68653062 470.32909962 -262.03796505 470.32320295 -258.38937449 470.31623769 C-254.58034984 470.31000409 -250.7713245 470.30940035 -246.96229553 470.30821228 C-239.74454746 470.30509898 -232.52681446 470.29688561 -225.30907303 470.28686279 C-217.09397243 470.27570161 -208.87887112 470.27019119 -200.66376483 470.26516736 C-183.76020949 470.254703 -166.85666884 470.23710358 -149.953125 470.21484375 C-149.64674103 469.27865204 -149.34035706 468.34246033 -149.02468872 467.37789917 C-148.03954108 464.46992784 -146.90076914 461.79841234 -145.5703125 459.03515625 C-145.12558594 458.10703125 -144.68085937 457.17890625 -144.22265625 456.22265625 C-143.76246094 455.27132813 -143.30226563 454.32 -142.828125 453.33984375 C-142.36019531 452.3653125 -141.89226562 451.39078125 -141.41015625 450.38671875 C-140.26097655 447.99454876 -139.10855257 445.60400059 -137.953125 443.21484375 C-138.69933105 442.93648682 -139.44553711 442.65812988 -140.21435547 442.37133789 C-142.67326219 441.3330208 -144.60444767 440.24250644 -146.7734375 438.7109375 C-147.81528198 437.97798462 -147.81528198 437.97798462 -148.87817383 437.23022461 C-149.60415771 436.70952393 -150.3301416 436.18882324 -151.078125 435.65234375 C-151.83440186 435.11295166 -152.59067871 434.57355957 -153.36987305 434.01782227 C-171.81889106 420.75285835 -188.92413236 405.11221482 -202.953125 387.21484375 C-203.74332031 386.24160156 -204.53351563 385.26835938 -205.34765625 384.265625 C-221.28756763 364.25915355 -233.16309688 341.15610455 -241.953125 317.21484375 C-242.23671875 316.44785156 -242.5203125 315.68085937 -242.8125 314.890625 C-246.95387112 303.54092397 -249.87438763 292.1130168 -251.953125 280.21484375 C-252.07171875 279.54275879 -252.1903125 278.87067383 -252.3125 278.17822266 C-255.14852215 261.37732359 -255.91501858 243.55723995 -249.91699219 227.42871094 C-248.95520064 224.22176464 -248.69986107 221.68901406 -248.6796875 218.35546875 C-248.65322144 216.69511597 -248.65322144 216.69511597 -248.6262207 215.0012207 C-248.60241333 213.25071411 -248.60241333 213.25071411 -248.578125 211.46484375 C-248.28098619 200.25814493 -247.24110027 189.93878223 -243.953125 179.21484375 C-243.65776855 178.2417627 -243.65776855 178.2417627 -243.35644531 177.24902344 C-238.88244959 163.05884622 -231.64094346 149.57525895 -223.6796875 137.05859375 C-221.04423131 132.71068652 -220.1636607 129.64452664 -219.828125 124.58984375 C-218.70130548 113.8092147 -215.06941982 108.30026749 -206.953125 101.21484375 C-205.58659219 100.18270336 -204.21131761 99.1620486 -202.828125 98.15234375 C-197.06784235 93.80738828 -192.4341346 88.43198713 -187.57421875 83.13671875 C-178.95446566 73.75348204 -170.02663814 65.04356288 -159.953125 57.21484375 C-158.92445313 56.39242187 -157.89578125 55.57 -156.8359375 54.72265625 C-138.85248555 40.44519841 -117.66615863 28.72649218 -95.953125 21.21484375 C-95.16711914 20.93833984 -94.38111328 20.66183594 -93.57128906 20.37695312 C-76.62486187 14.48644947 -59.26724451 10.07558358 -41.390625 8.27734375 C-36.00966504 7.64886678 -33.28012688 6.61431658 -29.53515625 2.74609375 C-21.66789691 -4.86863628 -9.27400949 -4.75546837 0 0 Z " fill="#3DA7E3" transform="translate(778.953125,273.78515625)"/>
<path d="M0 0 C2.10322154 0.47767733 4.21291942 0.89073455 6.33105469 1.296875 C54.22643201 10.78256261 99.5853526 38.222967 128.99511719 77.453125 C129.67670898 78.36070557 129.67670898 78.36070557 130.37207031 79.28662109 C154.61210964 111.83821541 169.68274528 150.69284903 170.99511719 191.453125 C171.02911621 192.45972168 171.06311523 193.46631836 171.09814453 194.50341797 C171.59324248 211.5956065 170.40215884 227.69926045 166.99511719 244.453125 C166.8562207 245.18321777 166.71732422 245.91331055 166.57421875 246.66552734 C160.28308564 279.23374699 142.71013341 311.72156933 120.30371094 335.953125 C118.70856788 337.68052188 117.13965799 339.43238235 115.59277344 341.203125 C110.67672753 346.79483598 105.60370716 351.68446598 99.74902344 356.28515625 C97.97559663 357.68125821 96.23020158 359.11411842 94.52246094 360.58984375 C64.35550568 386.56046829 25.06685446 400.71715685 -14.00488281 405.453125 C-14.78420166 405.54883789 -15.56352051 405.64455078 -16.36645508 405.74316406 C-65.91169363 411.29517593 -116.77895839 396.51425544 -157.00488281 367.453125 C-157.82279297 366.86845459 -157.82279297 366.86845459 -158.65722656 366.27197266 C-196.70400762 338.84316317 -224.94176621 298.1676693 -236.69238281 252.703125 C-236.8828418 251.97875244 -237.07330078 251.25437988 -237.26953125 250.50805664 C-241.05347269 235.0272456 -242.50727395 219.51920166 -242.39599609 203.61645508 C-242.37986539 200.88767729 -242.39598945 198.16037519 -242.41503906 195.43164062 C-242.43478113 179.73061685 -240.57348623 164.51613966 -236.25488281 149.390625 C-235.87082275 148.02139893 -235.87082275 148.02139893 -235.47900391 146.62451172 C-231.21512804 131.84358942 -225.23175209 118.00924751 -218.00488281 104.453125 C-217.69470215 103.86080078 -217.38452148 103.26847656 -217.06494141 102.65820312 C-200.3787116 70.99760421 -173.48091384 44.78811 -143.00488281 26.453125 C-142.32828613 26.04562012 -141.65168945 25.63811523 -140.95458984 25.21826172 C-100.59665555 1.21041754 -46.42456155 -10.70094216 0 0 Z " fill="#FDFDFD" transform="translate(803.0048828125,315.546875)"/>
<path d="M0 0 C0.94875 0.00902344 1.8975 0.01804687 2.875 0.02734375 C3.57625 0.03894531 4.2775 0.05054688 5 0.0625 C9.76024353 8.64721269 14.35655781 16.95376104 17.1796875 26.40234375 C17.94769656 28.89288743 18.88559651 31.18122241 19.9375 33.5625 C31.98903758 63.33408493 33.55716436 103.20070771 25 134.0625 C24.69521729 135.16827393 24.69521729 135.16827393 24.38427734 136.29638672 C23.06983117 140.94076321 21.58500253 145.5037308 20 150.0625 C19.62488281 151.14789062 19.24976563 152.23328125 18.86328125 153.3515625 C16.42388132 160.22541063 16.42388132 160.22541063 14.9140625 163.20703125 C13.65425587 165.76433102 13.51864111 167.24311222 14 170.0625 C15.7260029 173.20608251 15.7260029 173.20608251 19 175.0625 C22.48949906 174.91948774 25.6545542 174.01386115 29 173.0625 C42.15143126 169.81332287 55.19813142 172.08979737 67.03125 178.23046875 C75.42056974 183.40756211 82.50996149 191.50315631 85.3125 201.0625 C85.6528125 202.5475 85.6528125 202.5475 86 204.0625 C91.43694998 198.77249462 93.99100411 195.66738296 95.484375 188.296875 C97.24379379 180.67272692 102.48724876 174.44038919 108.875 170.125 C116.09233997 166.44916357 125.39489161 166.72057496 133.04296875 168.94921875 C138.64721494 171.50122798 142.59352546 174.96343343 146 180.0625 C146.4125 180.66964844 146.825 181.27679687 147.25 181.90234375 C150.50619827 187.43109706 150.86519954 192.77013968 150 199.0625 C148.34239431 205.30289788 146.04098134 209.88217401 141 214.0625 C140.175 214.784375 139.35 215.50625 138.5 216.25 C131.42336396 221.38056113 122.40944681 221.13083545 114 220.0625 C110.72126576 218.92084002 108.50177626 217.44113183 106 215.0625 C105.05125 214.19625 104.1025 213.33 103.125 212.4375 C101 210.0625 101 210.0625 99 207.0625 C96.08559301 206.39528464 96.08559301 206.39528464 93 207.0625 C90.20760999 209.77424337 89.09252571 211.4225305 88.53125 215.3046875 C88.5209375 216.50351562 88.510625 217.70234375 88.5 218.9375 C88.23333852 227.0292278 86.36193864 234.31830398 84 242.0625 C83.61579798 243.33981745 83.23168299 244.61716109 82.84765625 245.89453125 C81.91553753 248.95625927 80.96719934 252.01170635 80 255.0625 C84.07676067 253.16551021 87.35026071 251.11948992 90.75 248.1875 C101.24051788 239.56972207 110.67750744 237.36276043 124 238.0625 C132.76554001 239.24422465 138.89465903 245.21576322 144.44921875 251.7734375 C150.65918393 260.49970828 149.99802895 271.86135233 149 282.0625 C146.1751169 294.25548381 137.47114929 304.49584706 127 311.0625 C113.00631057 318.614361 95.17279797 324.69424992 79 324.0625 C81.54322794 328.58290828 84.64294697 332.09970745 88.16015625 335.87890625 C91.33012171 339.64113702 92.27450827 342.12135113 92 347.0625 C85.00899954 346.66652536 78.11389305 345.9656818 71.17919922 345.02026367 C48.38146659 341.94395686 25.37536276 341.02795519 2.39599609 340.40380859 C-3.58822818 340.23774573 -9.54666616 339.97574499 -15.51953125 339.56640625 C-26.48366273 338.82726736 -37.46679338 338.71331688 -48.45117188 338.51025391 C-66.38773311 338.17106494 -66.38773311 338.17106494 -74.0078125 337.5390625 C-82.48625809 336.86259747 -90.96342429 336.91255417 -99.46337891 336.93212891 C-102.28683645 336.937571 -105.11014051 336.93210859 -107.93359375 336.92578125 C-109.73177118 336.92644071 -111.52994852 336.92771913 -113.328125 336.9296875 C-114.17070862 336.92766327 -115.01329224 336.92563904 -115.88140869 336.92355347 C-120.07424416 336.82647754 -120.07424416 336.82647754 -124 338.0625 C-144.27577245 339.1961991 -144.27577245 339.1961991 -149 335.0625 C-156.42599026 325.83305496 -161.31954919 314.86784697 -166 304.0625 C-166.4228125 303.10859375 -166.845625 302.1546875 -167.28125 301.171875 C-173.7560527 285.1810744 -173.46985628 268.00221911 -173 251.0625 C-172.98477295 249.98645508 -172.98477295 249.98645508 -172.96923828 248.88867188 C-172.72596454 232.24362621 -166.49031617 213.37538913 -155 201.0625 C-145.20091609 191.81645081 -135.49068911 187.32148356 -122 187.0625 C-122.37511719 185.83402344 -122.75023437 184.60554687 -123.13671875 183.33984375 C-130.04760673 159.92994809 -133.46696448 137.03016236 -133.4375 112.6875 C-133.43772156 111.82215637 -133.43794312 110.95681274 -133.43817139 110.06524658 C-133.43135629 107.57690674 -133.40604295 105.08965425 -133.37109375 102.6015625 C-133.36549942 101.87146973 -133.35990509 101.14137695 -133.35414124 100.38916016 C-133.23497195 95.08523213 -132.2751416 90.20130025 -131 85.0625 C-130.78859375 84.06863281 -130.5771875 83.07476562 -130.359375 82.05078125 C-124.69387085 57.17340726 -109.93304255 39.71677458 -88.8203125 25.99609375 C-63.89225873 11.00993436 -29.22104583 -0.36526307 0 0 Z " fill="#85BD6F" transform="translate(1212,412.9375)"/>
<path d="M0 0 C0.48726563 0.25394531 0.97453125 0.50789062 1.4765625 0.76953125 C21.45259044 10.46698481 46.76174083 9.93506985 68.61474609 11.02026367 C69.88478048 11.08365891 69.88478048 11.08365891 71.18047214 11.14833486 C95.70295211 12.34803447 120.24255714 12.74176214 144.7890625 13.11328125 C146.13524113 13.13421077 147.48141869 13.15520839 148.82759523 13.17627168 C237.47263035 14.55868056 326.13485583 14.26673555 414.78784445 14.20319726 C433.08643004 14.19015668 451.38500364 14.18473016 469.68359375 14.18530273 C598.00717734 14.2530706 598.00717734 14.2530706 726.328125 13.546875 C727.99148368 13.53205853 727.99148368 13.53205853 729.68844557 13.51694274 C765.91497679 13.19080134 802.13662135 12.57000569 838.35667419 11.81781006 C839.23273941 11.79967135 840.10880462 11.78153263 841.01141727 11.76284426 C858.78055306 11.38833629 876.53631643 10.79397954 894.29296875 10.03125 C895.22268368 9.99188387 896.15239861 9.95251774 897.11028671 9.91195869 C915.95657057 9.10426082 934.75883181 7.77126989 953.56591797 6.33154297 C960.04082063 5.84127062 966.52004216 5.41745591 973 5 C973.33 3.68 973.66 2.36 974 1 C1001.27731184 6.63949675 1028.62190122 13.56726145 1053.6875 26.0625 C1054.71907227 26.55073242 1054.71907227 26.55073242 1055.77148438 27.04882812 C1058.6469887 28.47388179 1060.68636444 29.51651355 1062.45703125 32.24609375 C1062.72580078 33.11427734 1062.72580078 33.11427734 1063 34 C1053.06294078 40.62470614 1035.20528054 39.29665093 1023.64453125 39.99609375 C1022.9683437 40.03766035 1022.29215614 40.07922695 1021.59547806 40.12205315 C1004.22959519 41.18269362 986.84767895 41.83962036 969.46172333 42.46851349 C966.8343986 42.56397522 964.20714094 42.66112288 961.57989502 42.75872803 C939.13230592 43.59131208 916.68716267 44.35051468 894.22607422 44.70922852 C884.86429033 44.86183202 875.52616931 45.17788305 866.17370605 45.62722778 C857.07628834 46.05879958 847.98022769 46.30677872 838.875 46.5 C837.51127258 46.52984985 837.51127258 46.52984985 836.11999512 46.56030273 C740.63160961 48.63587385 645.11094779 49.1620511 549.60334086 49.16725707 C542.19248 49.16776447 534.78162032 49.17008768 527.37075996 49.17275429 C502.55782991 49.18149085 477.74490404 49.18618493 452.93197244 49.18542381 C451.6148439 49.18538386 450.29771536 49.1853439 448.94067383 49.18530273 C447.62179433 49.18526185 446.30291482 49.18522097 444.94406927 49.18517885 C425.01063974 49.18479965 405.07722467 49.19265873 385.14379883 49.20581055 C179.58412199 49.33887064 179.58412199 49.33887064 99.375 48.078125 C98.70228533 48.06765096 98.02957066 48.05717693 97.33647069 48.0463855 C-8.22364485 46.4020897 -8.22364485 46.4020897 -55.68725586 41.71118164 C-61.80392614 41.1069304 -67.92134009 40.57630009 -74.05078125 40.12109375 C-74.84435532 40.06156021 -75.63792938 40.00202667 -76.45555115 39.94068909 C-79.53424881 39.71172173 -82.61324168 39.48734968 -85.69262695 39.26782227 C-110.51593386 37.48406614 -110.51593386 37.48406614 -114 34 C-113.78496947 31.5868796 -113.39854537 30.38476282 -111.64453125 28.69140625 C-101.13667096 22.21641345 -88.8281182 19.16617745 -77 16 C-75.82566406 15.68289063 -74.65132813 15.36578125 -73.44140625 15.0390625 C-55.96027188 10.49142088 -38.15512226 7.31659523 -20.375 4.1875 C-19.14821533 3.96843994 -17.92143066 3.74937988 -16.6574707 3.52368164 C-11.03700766 2.55350361 -5.70680271 1.70712889 0 2 C0 1.34 0 0.68 0 0 Z " fill="#A8D5F6" transform="translate(342,765)"/>
<path d="M0 0 C10.00864141 -0.24020739 17.95968404 4.78854338 25.15625 11.453125 C28.72724808 15.41670637 31.38533474 19.87637776 34.00390625 24.50390625 C34.96296875 26.11265625 34.96296875 26.11265625 35.94140625 27.75390625 C37.6675633 33.84622526 37.86268937 40.2354657 37.00390625 46.50390625 C35.90755859 47.90962891 35.90755859 47.90962891 34.7890625 49.34375 C32.7641655 52.22029098 32.7641655 52.22029098 33.22119141 54.68676758 C35.15794151 61.48023912 38.25756085 67.90553858 41.31640625 74.25390625 C42.09286499 75.87123657 42.09286499 75.87123657 42.88500977 77.52124023 C47.99504305 87.90766584 54.05724669 97.56464184 60.47216797 107.18408203 C62.71661931 110.58331325 64.86132698 114.03973602 67.00390625 117.50390625 C67.05735503 112.87761707 67.06676177 108.25481888 67.02050781 103.62841797 C67.00594929 101.76535497 67.0147412 99.90213976 67.02734375 98.0390625 C66.80915034 90.0154958 64.48934787 84.50454318 60.6953125 77.59765625 C56.4878576 69.90180341 55.79314782 62.75659102 55.69140625 54.12890625 C55.64790039 52.91074219 55.64790039 52.91074219 55.60351562 51.66796875 C55.53439649 45.03253164 57.09447879 39.89490421 61.4597168 34.80712891 C63.00390625 33.50390625 63.00390625 33.50390625 65.87890625 33.06640625 C70.64802063 33.73408226 72.61851796 35.73525064 75.54296875 39.46875 C81.53335087 48.33628609 84.61263651 60.80313869 83.00390625 71.50390625 C80.46145664 83.22502986 80.46145664 83.22502986 75.921875 87.36328125 C70.93018373 92.92952262 71.88535215 101.07964237 71.94140625 108.12890625 C71.93866699 108.90626129 71.93592773 109.68361633 71.93310547 110.48452759 C71.95979266 124.85465332 75.38487704 135.79027879 84.00390625 147.50390625 C86.5520267 143.076995 87.33953236 140.08386224 87.12109375 134.99609375 C87.08886719 133.76117187 87.05664062 132.52625 87.0234375 131.25390625 C86.9279449 128.69367217 86.82393484 126.13373999 86.7109375 123.57421875 C86.4491857 112.60340414 88.63427533 103.86948148 96.00390625 95.50390625 C99.21969542 93.3600468 101.23586225 93.03191915 105.06640625 93.109375 C107.00390625 93.50390625 107.00390625 93.50390625 109.44140625 95.87890625 C113.66158226 102.96880195 113.0353071 112.90802683 111.25 120.86328125 C108.23317234 129.42870566 103.65115953 136.40573739 96.00390625 141.50390625 C94.34841094 141.88890516 92.68166295 142.2318376 91.00390625 142.50390625 C90.46786806 143.8939714 89.95073152 145.29133274 89.44140625 146.69140625 C89.15136719 147.46871094 88.86132812 148.24601563 88.5625 149.046875 C87.31391361 154.53890883 89.88790351 158.51508161 92.50390625 163.25390625 C93.13296875 164.40375 93.76203125 165.55359375 94.41015625 166.73828125 C95.7454139 169.33194759 95.7454139 169.33194759 97.00390625 170.50390625 C98.75017149 170.60020222 100.5003653 170.62578164 102.24928284 170.62416077 C103.95521103 170.62622276 103.95521103 170.62622276 105.69560242 170.62832642 C106.95435684 170.62473114 108.21311127 170.62113586 109.51000977 170.61743164 C110.82688782 170.61757767 112.14376587 170.61772369 113.50054932 170.61787415 C117.12228893 170.61816212 120.74399571 170.61226549 124.36572766 170.60530019 C128.14672509 170.59906655 131.9277232 170.59846284 135.70872498 170.59727478 C142.87334915 170.59416149 150.03795815 170.58594814 157.20257562 170.57592529 C165.35721787 170.56476407 173.51186082 170.55925368 181.66650879 170.55422986 C198.44565018 170.54376553 215.22477628 170.52616614 232.00390625 170.50390625 C230.77761177 174.22400967 229.49558004 177.88126991 228.00390625 181.50390625 C232.79214062 181.64473667 237.22363921 181.73474605 241.26953125 178.9375 C243.31447392 176.8804809 245.16939156 174.75001077 247.00390625 172.50390625 C248.16983953 171.21157755 249.33649242 169.91989767 250.50390625 168.62890625 C254.47118386 164.02942966 258.24224698 159.27193151 262.00390625 154.50390625 C264.79683753 155.13222852 267.27444857 155.98390211 269.875 157.17578125 C270.6079126 157.50819824 271.3408252 157.84061523 272.09594727 158.18310547 C272.86994873 158.53646973 273.6439502 158.88983398 274.44140625 159.25390625 C288.62484884 165.75722241 288.62484884 165.75722241 303.58984375 169.98046875 C306.63566189 170.64088886 309.58156171 171.54527911 312.56640625 172.44140625 C320.29588303 174.66756177 328.06153357 176.28327352 336.00390625 177.50390625 C336.68952637 177.60977051 337.37514648 177.71563477 338.08154297 177.82470703 C374.06913881 183.08975989 412.70272318 179.5667108 446.93212891 167.2331543 C449.09093218 166.47327386 451.26520981 165.77819651 453.4453125 165.08203125 C459.03446299 163.23222409 464.29286067 160.72068949 469.60546875 158.20117188 C477.57024673 154.53818951 477.57024673 154.53818951 481.00390625 155.50390625 C483.52634578 157.55986178 485.61571104 159.93367169 487.75390625 162.37890625 C488.68360229 163.39815186 488.68360229 163.39815186 489.63208008 164.43798828 C492.3653813 167.44842625 495.02878838 170.48593618 497.53125 173.69140625 C501.42446852 178.69521115 501.42446852 178.69521115 506.99609375 181.33203125 C509.71688552 181.59511035 512.27883469 181.67708837 515.00390625 181.50390625 C514.50890625 180.57578125 514.01390625 179.64765625 513.50390625 178.69140625 C512.00390625 175.50390625 512.00390625 175.50390625 512.00390625 172.50390625 C548.760847 172.3302472 585.49703682 172.77583353 622.246521 173.4375 C625.80704563 173.50042703 629.36760799 173.55960794 632.92822266 173.6171875 C637.95399667 173.69886694 642.97950201 173.78964579 648.00494385 173.88967896 C649.7711236 173.92368639 651.53736276 173.95475805 653.3036499 173.9826355 C655.68708656 174.02117344 658.06998609 174.07140741 660.453125 174.125 C661.75596436 174.15005615 663.05880371 174.1751123 664.40112305 174.20092773 C668.16130164 174.51714252 671.39906836 175.42128102 675.00390625 176.50390625 C677.27099084 176.78404955 677.27099084 176.78404955 679.3359375 176.734375 C680.07134766 176.73244141 680.80675781 176.73050781 681.56445312 176.72851562 C682.30759766 176.71626953 683.05074219 176.70402344 683.81640625 176.69140625 C684.57888672 176.69076172 685.34136719 176.69011719 686.12695312 176.68945312 C690.19728731 176.73981249 690.19728731 176.73981249 694.00390625 175.50390625 C696.90266931 175.40437629 699.77682135 175.36412926 702.67578125 175.37109375 C703.54978577 175.37013702 704.42379028 175.3691803 705.32427979 175.36819458 C707.18379793 175.36751262 709.04331843 175.369368 710.90283203 175.37353516 C713.70090362 175.3788064 716.49880895 175.37363123 719.296875 175.3671875 C728.00631856 175.36387818 736.61446631 175.53412147 745.29882812 176.25439453 C753.64314115 176.81632705 762.01886283 176.84935811 770.37890625 177.00390625 C781.72056138 177.21437401 793.02074302 177.49630694 804.33886719 178.27197266 C810.20221976 178.64302148 816.0692046 178.78191036 821.94140625 178.94140625 C846.406881 179.7023611 870.76184714 180.95500549 895.00390625 184.50390625 C895.91994629 184.63442383 896.83598633 184.76494141 897.77978516 184.89941406 C900.41867841 185.27794191 903.05538216 185.66842431 905.69140625 186.06640625 C906.46403809 186.18105225 907.23666992 186.29569824 908.03271484 186.41381836 C911.92817113 187.0312197 915.4140238 187.85411806 919.00390625 189.50390625 C919.00390625 191.81390625 919.00390625 194.12390625 919.00390625 196.50390625 C883.27372184 201.56175211 847.03021537 202.55421139 811.00390625 203.62890625 C809.72927521 203.66742706 808.45464417 203.70594788 807.14138794 203.74563599 C762.12414343 205.0764646 717.07702853 205.65531884 672.04296875 206.0546875 C670.32612279 206.07013654 670.32612279 206.07013654 668.57459307 206.08589768 C583.06243402 206.84675418 497.54316553 206.69176881 412.02849451 206.68909456 C393.73415812 206.6887091 375.43983921 206.6966051 357.14550781 206.7097168 C169.07655996 206.84187176 169.07655996 206.84187176 92.80005985 205.64839247 C90.81803285 205.61757718 88.83599337 205.58756806 86.85395384 205.55756927 C62.82566808 205.19280545 38.81020496 204.72914705 14.80615234 203.55151367 C14.01738685 203.51357653 13.22862135 203.47563939 12.41595387 203.43655264 C-42.18232204 200.74602043 -42.18232204 200.74602043 -53.38916016 192.80908203 C-55.59383521 189.64643514 -55.28558343 187.26727209 -54.99609375 183.50390625 C-54.0831958 183.45379395 -53.17029785 183.40368164 -52.22973633 183.35205078 C-48.82807533 183.16125491 -45.42703564 182.96282512 -42.02612305 182.75927734 C-40.55689781 182.6728999 -39.08749254 182.58952816 -37.61791992 182.50927734 C-35.49993752 182.39308596 -33.3828479 182.26593474 -31.265625 182.13671875 C-29.99307861 182.06340332 -28.72053223 181.99008789 -27.40942383 181.91455078 C-24.18101655 181.5261536 -21.9258175 180.85244666 -18.99609375 179.50390625 C-15.60015215 178.04276119 -12.60168859 177.1546565 -8.93359375 176.6875 C-7.97066406 176.56310547 -7.00773437 176.43871094 -6.015625 176.31054688 C-5.01917969 176.18873047 -4.02273438 176.06691406 -2.99609375 175.94140625 C-2.03058594 175.81572266 -1.06507813 175.69003906 -0.0703125 175.56054688 C13.12037445 173.89205601 26.28854273 173.27594634 39.56640625 172.94140625 C40.36484955 172.92022736 41.16329285 172.89904846 41.9859314 172.87722778 C56.9941955 172.48226855 71.99043027 172.38376887 87.00390625 172.50390625 C85.81986399 169.86535522 84.60909186 167.24584654 83.37890625 164.62890625 C83.04761719 163.88253906 82.71632813 163.13617187 82.375 162.3671875 C80.17857809 157.75932899 80.17857809 157.75932899 75.95703125 155.01171875 C69.93402435 153.89630724 69.93402435 153.89630724 64.2265625 155.49609375 C56.27571544 159.101223 44.71059829 156.50864726 36.8828125 153.76171875 C29.6033298 150.58126634 24.14483243 145.93595693 21.00390625 138.50390625 C20.69140625 135.00390625 20.69140625 135.00390625 21.00390625 132.50390625 C20.36453125 132.19453125 19.72515625 131.88515625 19.06640625 131.56640625 C17.00390625 130.50390625 17.00390625 130.50390625 16.00390625 129.50390625 C14.16231809 129.54629033 12.32067152 129.59418057 10.48022461 129.67163086 C-0.5280559 130.06734185 -8.98476489 128.15566993 -17.62109375 120.87890625 C-21.1007142 117.63419688 -22.88940737 115.4640837 -23.43359375 110.56640625 C-23.34791101 107.23089965 -23.19021281 106.71466409 -20.80859375 104.12890625 C-12.58915378 99.37989649 -3.69604869 99.0099923 5.4765625 101.4140625 C12.32323561 104.0526193 16.67057419 106.83724214 20.00390625 113.50390625 C19.97260892 115.29638949 19.90521396 117.08835078 19.81640625 118.87890625 C19.6730706 123.34852547 19.6730706 123.34852547 22.00390625 127.06640625 C22.66390625 127.54078125 23.32390625 128.01515625 24.00390625 128.50390625 C24.00390625 129.16390625 24.00390625 129.82390625 24.00390625 130.50390625 C24.555625 130.34792969 25.10734375 130.19195313 25.67578125 130.03125 C37.4360819 127.36742351 48.88196598 131.15054866 58.91796875 137.28515625 C62.80052419 140.16861762 66.05846185 142.96453599 68.00390625 147.50390625 C68.00390625 148.16390625 68.00390625 148.82390625 68.00390625 149.50390625 C70.64390625 149.83390625 73.28390625 150.16390625 76.00390625 150.50390625 C70.93571278 138.05923317 64.00319945 126.21565461 56.62890625 115.00390625 C56.23695068 114.39998047 55.84499512 113.79605469 55.44116211 113.17382812 C51.17559519 106.85393226 45.3752833 103.37260559 39.06640625 99.37890625 C19.88384503 87.11072305 19.88384503 87.11072305 14.1171875 81.75 C10.91018604 79.85899544 7.62496532 80.10395087 4.00390625 80.06640625 C-11.80825647 79.47778075 -24.22031529 73.20125574 -35.11328125 61.703125 C-38.46744055 57.78529993 -40.69342955 54.47122358 -41.49609375 49.25390625 C-40.99609375 46.50390625 -40.99609375 46.50390625 -39.3359375 44.859375 C-33.86129871 41.68792315 -26.556483 42.95525141 -20.60546875 44.23046875 C-8.41557067 47.78344852 2.21980003 52.63931287 9.3828125 63.6171875 C11.02964875 66.74678407 11.96876302 69.21866606 12.40625 72.76953125 C14.04711888 78.61566154 20.27488694 81.18053896 25.12890625 84.12890625 C26.14984375 84.77085937 27.17078125 85.4128125 28.22265625 86.07421875 C31.13844365 87.90314452 34.06917138 89.70559625 37.00390625 91.50390625 C38.58580914 92.4890031 40.16670341 93.47572358 41.74609375 94.46484375 C42.82117188 95.13773438 43.89625 95.810625 45.00390625 96.50390625 C44.65199219 95.95605469 44.30007813 95.40820312 43.9375 94.84375 C37.22972661 84.07278229 29.41944879 70.48419611 27.6171875 57.77734375 C27.41480469 57.02710938 27.21242188 56.276875 27.00390625 55.50390625 C25.14090441 54.82645104 23.2733407 54.15936898 21.38671875 53.55078125 C10.19773434 48.63496515 3.22568597 36.3696611 -1.21875 25.53515625 C-1.60353516 24.5296875 -1.60353516 24.5296875 -1.99609375 23.50390625 C-2.61484375 21.89515625 -2.61484375 21.89515625 -3.24609375 20.25390625 C-4.3539649 14.71455048 -4.51321017 9.13134965 -3.99609375 3.50390625 C-1.99609375 0.50390625 -1.99609375 0.50390625 0 0 Z " fill="#6CBAE2" transform="translate(395.99609375,573.49609375)"/>
<path d="M0 0 C4.38839691 2.62125722 7.5439718 5.69980466 10.375 9.9375 C10.99375 10.84822266 10.99375 10.84822266 11.625 11.77734375 C14.88119827 17.30609706 15.24019954 22.64513968 14.375 28.9375 C12.71739431 35.17789788 10.41598134 39.75717401 5.375 43.9375 C4.55 44.659375 3.725 45.38125 2.875 46.125 C-4.20163604 51.25556113 -13.21555319 51.00583545 -21.625 49.9375 C-24.90373424 48.79584002 -27.12322374 47.31613183 -29.625 44.9375 C-30.57375 44.07125 -31.5225 43.205 -32.5 42.3125 C-34.625 39.9375 -34.625 39.9375 -36.625 36.9375 C-39.53940699 36.27028464 -39.53940699 36.27028464 -42.625 36.9375 C-45.41739001 39.64924337 -46.53247429 41.2975305 -47.09375 45.1796875 C-47.1040625 46.37851562 -47.114375 47.57734375 -47.125 48.8125 C-47.39166148 56.9042278 -49.26306136 64.19330398 -51.625 71.9375 C-52.00920202 73.21481745 -52.39331701 74.49216109 -52.77734375 75.76953125 C-53.70946247 78.83125927 -54.65780066 81.88670635 -55.625 84.9375 C-51.54823933 83.04051021 -48.27473929 80.99448992 -44.875 78.0625 C-34.38448212 69.44472207 -24.94749256 67.23776043 -11.625 67.9375 C-2.85945999 69.11922465 3.26965903 75.09076322 8.82421875 81.6484375 C15.03418393 90.37470828 14.37302895 101.73635233 13.375 111.9375 C10.5501169 124.13048381 1.84614929 134.37084706 -8.625 140.9375 C-22.61868943 148.489361 -40.45220203 154.56924992 -56.625 153.9375 C-54.08177206 158.45790828 -50.98205303 161.97470745 -47.46484375 165.75390625 C-44.29487829 169.51613702 -43.35049173 171.99635113 -43.625 176.9375 C-50.61600046 176.54152536 -57.51110695 175.8406818 -64.44580078 174.89526367 C-87.3248423 171.80798511 -110.38744168 170.94818213 -133.44433594 170.26342773 C-142.18810463 170.00301291 -150.90163785 169.59244892 -159.625 168.9375 C-159.55283826 151.52847997 -159.55283826 151.52847997 -155.171875 146.68359375 C-152.65960305 144.37162062 -149.92338449 142.33834312 -147.21337891 140.26513672 C-133.00448455 128.38871995 -124.43191746 106.78631885 -122.625 88.9375 C-121.60084054 75.37514597 -123.94071916 64.27992847 -132.40625 53.4453125 C-137.26857331 47.9495175 -142.90418192 43.49612036 -148.625 38.9375 C-147.62339844 38.34582031 -146.62179687 37.75414062 -145.58984375 37.14453125 C-144.24729984 36.34651564 -142.90485735 35.54832939 -141.5625 34.75 C-140.90572266 34.36263672 -140.24894531 33.97527344 -139.57226562 33.57617188 C-132.9995026 29.65841657 -126.85751612 25.59427419 -121.625 19.9375 C-120.8825 19.195 -120.14 18.4525 -119.375 17.6875 C-116.96246622 13.89637549 -116.81755442 10.35662386 -116.625 5.9375 C-101.10016002 0.94099978 -86.88263774 -0.38261572 -71.6875 6.5 C-62.50168412 11.26688172 -54.45966254 19.08996056 -50.8828125 28.9921875 C-50.40428947 30.62440989 -50.00494532 32.27955676 -49.625 33.9375 C-44.18805002 28.64749462 -41.63399589 25.54238296 -40.140625 18.171875 C-38.38120621 10.54772692 -33.13775124 4.31538919 -26.75 0 C-18.85594958 -4.0204893 -7.96050954 -3.62498241 0 0 Z " fill="#B7D58D" transform="translate(1347.625,583.0625)"/>
<path d="M0 0 C10.00864141 -0.24020739 17.95968404 4.78854338 25.15625 11.453125 C28.72724808 15.41670637 31.38533474 19.87637776 34.00390625 24.50390625 C34.96296875 26.11265625 34.96296875 26.11265625 35.94140625 27.75390625 C37.6675633 33.84622526 37.86268937 40.2354657 37.00390625 46.50390625 C35.90755859 47.90962891 35.90755859 47.90962891 34.7890625 49.34375 C32.7641655 52.22029098 32.7641655 52.22029098 33.22119141 54.68676758 C35.15794151 61.48023912 38.25756085 67.90553858 41.31640625 74.25390625 C42.09286499 75.87123657 42.09286499 75.87123657 42.88500977 77.52124023 C47.99504305 87.90766584 54.05724669 97.56464184 60.47216797 107.18408203 C62.71661931 110.58331325 64.86132698 114.03973602 67.00390625 117.50390625 C67.05735503 112.87761707 67.06676177 108.25481888 67.02050781 103.62841797 C67.00594929 101.76535497 67.0147412 99.90213976 67.02734375 98.0390625 C66.80915034 90.0154958 64.48934787 84.50454318 60.6953125 77.59765625 C56.4878576 69.90180341 55.79314782 62.75659102 55.69140625 54.12890625 C55.64790039 52.91074219 55.64790039 52.91074219 55.60351562 51.66796875 C55.53439649 45.03253164 57.09447879 39.89490421 61.4597168 34.80712891 C63.00390625 33.50390625 63.00390625 33.50390625 65.87890625 33.06640625 C70.64802063 33.73408226 72.61851796 35.73525064 75.54296875 39.46875 C81.53335087 48.33628609 84.61263651 60.80313869 83.00390625 71.50390625 C80.46145664 83.22502986 80.46145664 83.22502986 75.921875 87.36328125 C70.93018373 92.92952262 71.88535215 101.07964237 71.94140625 108.12890625 C71.93866699 108.90626129 71.93592773 109.68361633 71.93310547 110.48452759 C71.95979266 124.85465332 75.38487704 135.79027879 84.00390625 147.50390625 C86.5520267 143.076995 87.33953236 140.08386224 87.12109375 134.99609375 C87.08886719 133.76117187 87.05664062 132.52625 87.0234375 131.25390625 C86.9279449 128.69367217 86.82393484 126.13373999 86.7109375 123.57421875 C86.4491857 112.60340414 88.63427533 103.86948148 96.00390625 95.50390625 C99.21969542 93.3600468 101.23586225 93.03191915 105.06640625 93.109375 C107.00390625 93.50390625 107.00390625 93.50390625 109.44140625 95.87890625 C113.66158226 102.96880195 113.0353071 112.90802683 111.25 120.86328125 C108.23317234 129.42870566 103.65115953 136.40573739 96.00390625 141.50390625 C94.34841094 141.88890516 92.68166295 142.2318376 91.00390625 142.50390625 C90.46786806 143.8939714 89.95073152 145.29133274 89.44140625 146.69140625 C89.15136719 147.46871094 88.86132812 148.24601563 88.5625 149.046875 C87.31679073 154.52625353 89.8631494 158.42099958 92.50390625 163.12890625 C95.91577066 169.23949947 95.91577066 169.23949947 97.00390625 172.50390625 C93.70390625 172.50390625 90.40390625 172.50390625 87.00390625 172.50390625 C86.49601562 171.37210938 85.988125 170.2403125 85.46484375 169.07421875 C84.77061243 167.59194106 84.07523977 166.11019755 83.37890625 164.62890625 C83.04761719 163.88253906 82.71632813 163.13617187 82.375 162.3671875 C80.17857809 157.75932899 80.17857809 157.75932899 75.95703125 155.01171875 C69.93402435 153.89630724 69.93402435 153.89630724 64.2265625 155.49609375 C56.27571544 159.101223 44.71059829 156.50864726 36.8828125 153.76171875 C29.6033298 150.58126634 24.14483243 145.93595693 21.00390625 138.50390625 C20.69140625 135.00390625 20.69140625 135.00390625 21.00390625 132.50390625 C20.36453125 132.19453125 19.72515625 131.88515625 19.06640625 131.56640625 C17.00390625 130.50390625 17.00390625 130.50390625 16.00390625 129.50390625 C14.16231809 129.54629033 12.32067152 129.59418057 10.48022461 129.67163086 C-0.5280559 130.06734185 -8.98476489 128.15566993 -17.62109375 120.87890625 C-21.1007142 117.63419688 -22.88940737 115.4640837 -23.43359375 110.56640625 C-23.34791101 107.23089965 -23.19021281 106.71466409 -20.80859375 104.12890625 C-12.58915378 99.37989649 -3.69604869 99.0099923 5.4765625 101.4140625 C12.32323561 104.0526193 16.67057419 106.83724214 20.00390625 113.50390625 C19.97260892 115.29638949 19.90521396 117.08835078 19.81640625 118.87890625 C19.6730706 123.34852547 19.6730706 123.34852547 22.00390625 127.06640625 C22.66390625 127.54078125 23.32390625 128.01515625 24.00390625 128.50390625 C24.00390625 129.16390625 24.00390625 129.82390625 24.00390625 130.50390625 C24.555625 130.34792969 25.10734375 130.19195313 25.67578125 130.03125 C37.4360819 127.36742351 48.88196598 131.15054866 58.91796875 137.28515625 C62.80052419 140.16861762 66.05846185 142.96453599 68.00390625 147.50390625 C68.00390625 148.16390625 68.00390625 148.82390625 68.00390625 149.50390625 C70.64390625 149.83390625 73.28390625 150.16390625 76.00390625 150.50390625 C70.93571278 138.05923317 64.00319945 126.21565461 56.62890625 115.00390625 C56.23695068 114.39998047 55.84499512 113.79605469 55.44116211 113.17382812 C51.17559519 106.85393226 45.3752833 103.37260559 39.06640625 99.37890625 C19.88384503 87.11072305 19.88384503 87.11072305 14.1171875 81.75 C10.91018604 79.85899544 7.62496532 80.10395087 4.00390625 80.06640625 C-11.80825647 79.47778075 -24.22031529 73.20125574 -35.11328125 61.703125 C-38.46744055 57.78529993 -40.69342955 54.47122358 -41.49609375 49.25390625 C-40.99609375 46.50390625 -40.99609375 46.50390625 -39.3359375 44.859375 C-33.86129871 41.68792315 -26.556483 42.95525141 -20.60546875 44.23046875 C-8.41557067 47.78344852 2.21980003 52.63931287 9.3828125 63.6171875 C11.02964875 66.74678407 11.96876302 69.21866606 12.40625 72.76953125 C14.04711888 78.61566154 20.27488694 81.18053896 25.12890625 84.12890625 C26.14984375 84.77085937 27.17078125 85.4128125 28.22265625 86.07421875 C31.13844365 87.90314452 34.06917138 89.70559625 37.00390625 91.50390625 C38.58580914 92.4890031 40.16670341 93.47572358 41.74609375 94.46484375 C42.82117188 95.13773438 43.89625 95.810625 45.00390625 96.50390625 C44.65199219 95.95605469 44.30007813 95.40820312 43.9375 94.84375 C37.22972661 84.07278229 29.41944879 70.48419611 27.6171875 57.77734375 C27.41480469 57.02710938 27.21242188 56.276875 27.00390625 55.50390625 C25.14090441 54.82645104 23.2733407 54.15936898 21.38671875 53.55078125 C10.19773434 48.63496515 3.22568597 36.3696611 -1.21875 25.53515625 C-1.60353516 24.5296875 -1.60353516 24.5296875 -1.99609375 23.50390625 C-2.61484375 21.89515625 -2.61484375 21.89515625 -3.24609375 20.25390625 C-4.3539649 14.71455048 -4.51321017 9.13134965 -3.99609375 3.50390625 C-1.99609375 0.50390625 -1.99609375 0.50390625 0 0 Z " fill="#72BD88" transform="translate(395.99609375,573.49609375)"/>
<path d="M0 0 C0.66 0 1.32 0 2 0 C2.77236653 6.12100473 0.26113644 9.49951094 -3 14.375 C-3.79555298 15.59981079 -3.79555298 15.59981079 -4.60717773 16.84936523 C-6.38755079 19.57804433 -8.1904489 22.29058933 -10 25 C-10.64727051 25.9698584 -11.29454102 26.9397168 -11.96142578 27.93896484 C-14.68013528 32.00811853 -17.40145903 36.0755166 -20.12475586 40.14160156 C-28.94411087 53.34784642 -37.22634292 66.62042763 -44 81 C-26.11121623 73.51789503 -10.39353606 65.93352727 4.47338867 53.36523438 C5.9233516 52.16831796 7.45665276 51.07381595 9 50 C9.99 50.33 10.98 50.66 12 51 C-2.01515793 65.78554716 -17.42289417 79.59014481 -37.4765625 85.34765625 C-43.64103517 87.20089112 -49.10447642 88.97686145 -52.6484375 94.65625 C-55.32527156 99.89414111 -57.12753419 105.43714797 -59 111 C-59.77134106 113.19025091 -60.5511131 115.37741165 -61.33073425 117.56472778 C-63.81303857 124.5418175 -66.24034034 131.53696063 -68.59375 138.55859375 C-68.93680428 139.57314888 -68.93680428 139.57314888 -69.28678894 140.60820007 C-70.42975794 144.04750141 -71.38606361 147.42656437 -72 151 C-71.3503125 150.45601562 -70.700625 149.91203125 -70.03125 149.3515625 C-53.26633468 136.34579056 -21.10735371 114.98138143 1 117 C3 119 3 119 3.125 121.625 C3.08375 122.40875 3.0425 123.1925 3 124 C-1.54217602 126.02482546 -6.09836487 127.7604137 -10.81103516 129.3449707 C-32.12993866 136.52548368 -52.2558903 146.0301425 -70.49609375 159.28515625 C-73 161 -73 161 -76 162 C-76.11085938 162.93972656 -76.22171875 163.87945313 -76.3359375 164.84765625 C-77.048888 169.80725792 -78.3422629 174.59961912 -79.625 179.4375 C-79.88861328 180.44176025 -80.15222656 181.44602051 -80.42382812 182.48071289 C-82.59839975 190.67928079 -84.97553669 198.81108579 -87.39306641 206.94067383 C-89.45984024 213.95963773 -91.28075244 221.01367159 -93 228.125 C-95.7787834 239.60237798 -99.25985107 250.8029083 -103 262 C-80.6407879 247.60202251 -60.28087422 230.67883608 -41.7421875 211.625 C-40.84250244 210.70517334 -39.94281738 209.78534668 -39.01586914 208.83764648 C-37.23271701 207.00714976 -35.46074946 205.16568161 -33.70092773 203.31274414 C-32.88825439 202.47864014 -32.07558105 201.64453613 -31.23828125 200.78515625 C-30.51680908 200.03113525 -29.79533691 199.27711426 -29.05200195 198.50024414 C-27 197 -27 197 -24.73510742 197.26342773 C-24.16252197 197.50649658 -23.58993652 197.74956543 -23 198 C-24.73579604 211.1122971 -41.16676105 225.01327425 -51 233 C-52.485 234.2065625 -52.485 234.2065625 -54 235.4375 C-54.66 235.953125 -55.32 236.46875 -56 237 C-53.13806263 238.62270241 -51.09653384 239.24953589 -47.8125 239.23046875 C-46.64074219 239.22756836 -46.64074219 239.22756836 -45.4453125 239.22460938 C-44.63835937 239.21236328 -43.83140625 239.20011719 -43 239.1875 C-42.19304687 239.18685547 -41.38609375 239.18621094 -40.5546875 239.18554688 C-36.8229063 239.15783563 -33.62118943 238.90574553 -30 238 C-27.66699067 237.96111651 -25.33290199 237.9551365 -23 238 C-22.505 240.475 -22.505 240.475 -22 243 C-28.10399255 246.81499534 -36.4013304 246.18539336 -43.375 246.1875 C-44.21571045 246.19612061 -45.0564209 246.20474121 -45.92260742 246.21362305 C-50.43295604 246.20881411 -54.03343193 245.86464116 -58.3125 244.3125 C-60.5797454 243.61709132 -60.5797454 243.61709132 -63 244 C-67.43007066 246.73750066 -71.21908714 250.04751495 -75.14257812 253.45410156 C-78.09038659 255.90750892 -81.23339396 258.02337756 -84.4375 260.125 C-85.05318848 260.53161865 -85.66887695 260.9382373 -86.30322266 261.35717773 C-91.40594037 264.68795249 -96.61892409 267.83364351 -101.90209961 270.86962891 C-104.9233798 272.63095848 -107.66473524 274.48584054 -110.30859375 276.76171875 C-113 279 -113 279 -115 279 C-114.50234897 272.92865739 -113.41955535 267.56616452 -111.5234375 261.7734375 C-110.29553716 255.26739838 -112.53829079 250.3852854 -115.75 244.875 C-125.16819381 227.90917618 -127.84196224 212.20848742 -127 193 C-126 192 -126 192 -123 191.875 C-120 192 -120 192 -119 193 C-118.90393791 194.84012271 -118.81498115 196.6808751 -118.76074219 198.52270508 C-118.27656387 214.07289867 -115.25261931 228.72660265 -109 243 C-108.34 243 -107.68 243 -107 243 C-104.13676179 233.23130491 -101.36087953 223.44318728 -98.7734375 213.59765625 C-98.5808989 212.86544861 -98.38836029 212.13324097 -98.18998718 211.37884521 C-97.23260003 207.73215403 -96.28102223 204.08404313 -95.33618164 200.43408203 C-93.1666584 192.104579 -90.77754252 183.88637343 -88.13305664 175.69458008 C-84.70594131 164.51971771 -85.76712033 157.31397089 -89.3125 146.3125 C-95.41548149 126.73775197 -99.28185667 106.57553713 -99 86 C-97.515 86.495 -97.515 86.495 -96 87 C-95.26391602 88.75561523 -95.26391602 88.75561523 -94.75390625 91.05859375 C-94.55869385 91.91018066 -94.36348145 92.76176758 -94.16235352 93.63916016 C-93.96440186 94.5626123 -93.7664502 95.48606445 -93.5625 96.4375 C-93.23946899 97.8613501 -93.23946899 97.8613501 -92.90991211 99.31396484 C-91.90248155 103.77826499 -90.9437736 108.25233974 -90 112.73046875 C-87.66316136 123.73041433 -84.54893015 134.32955002 -81 145 C-78.89235506 141.83853258 -77.9541273 139.14164585 -76.79296875 135.53125 C-76.36661187 134.22393374 -75.94017693 132.91664293 -75.51367188 131.609375 C-74.85363655 129.56771763 -74.19566133 127.52542226 -73.53979492 125.48242188 C-72.90050334 123.49685744 -72.25531148 121.51338557 -71.60546875 119.53125 C-71.39356903 118.88430176 -71.18166931 118.23735352 -70.96334839 117.57080078 C-69.31456218 112.66037853 -67.27804938 108.04991568 -64.91137695 103.44726562 C-63.26286545 99.020617 -63.72495685 95.02498968 -65.375 90.6875 C-69.22268486 79.85227423 -70.15398051 69.00163538 -70.16796875 57.56640625 C-70.17296135 56.1276841 -70.17296135 56.1276841 -70.17805481 54.65989685 C-70.18308292 52.65062943 -70.18546442 50.64135378 -70.18530273 48.63208008 C-70.18751117 45.54690184 -70.20576934 42.4620693 -70.22460938 39.37695312 C-70.22753972 37.41927205 -70.22952691 35.46158929 -70.23046875 33.50390625 C-70.23765427 32.58001602 -70.24483978 31.65612579 -70.25224304 30.70423889 C-70.24916641 29.85252609 -70.24608978 29.00081329 -70.24291992 28.12329102 C-70.24434494 27.37322281 -70.24576996 26.6231546 -70.24723816 25.85035706 C-70 24 -70 24 -68 22 C-65.4375 21.8125 -65.4375 21.8125 -63 22 C-60.83398526 24.16601474 -61.78836026 29.2157179 -61.75390625 32.23046875 C-61.72090902 34.16862331 -61.68769857 36.10677425 -61.65429688 38.04492188 C-61.60731104 41.09656687 -61.56301274 44.14820404 -61.52319336 47.19995117 C-61.31482084 62.69618979 -61.31482084 62.69618979 -59.41772461 78.0559082 C-58.94325388 81.39994244 -58.93489488 84.62692209 -59 88 C-58.34 88 -57.68 88 -57 88 C-56.88696533 87.2795752 -56.77393066 86.55915039 -56.6574707 85.81689453 C-55.96278226 82.84054279 -54.92925389 80.61549868 -53.48046875 77.9296875 C-52.95880127 76.96015137 -52.43713379 75.99061523 -51.8996582 74.99169922 C-51.334646 73.96318848 -50.76963379 72.93467773 -50.1875 71.875 C-49.60508545 70.80910645 -49.0226709 69.74321289 -48.42260742 68.64501953 C-40.21818874 53.78498115 -31.07874635 39.6496929 -21 26 C-20.26265625 24.98679687 -19.5253125 23.97359375 -18.765625 22.9296875 C-12.98078917 15.07297784 -6.92034967 6.92034967 0 0 Z " fill="#1F9773" transform="translate(1198,446)"/>
<path d="M0 0 C0.99 0.103125 1.98 0.20625 3 0.3125 C5.10051212 3.46326818 5.2698404 4.29695534 5.37890625 7.91015625 C5.41250244 8.91030762 5.44609863 9.91045898 5.48071289 10.94091797 C5.50770264 12.07416504 5.53469238 13.20741211 5.5625 14.375 C5.59786865 15.59074707 5.6332373 16.80649414 5.66967773 18.05908203 C5.80188177 22.80976543 5.90223459 27.56099899 6 32.3125 C6.02191406 33.3759967 6.04382813 34.43949341 6.06640625 35.53521729 C6.2435836 44.25243539 6.40648381 52.96987924 6.5625 61.6875 C6.59599045 63.54436935 6.59599045 63.54436935 6.63015747 65.43875122 C6.91268133 81.39811913 7.06687656 97.35060928 7 113.3125 C11.5267543 113.5691375 14.29325109 113.02254642 18.28125 110.890625 C19.27584229 110.36629883 20.27043457 109.84197266 21.29516602 109.30175781 C22.35276123 108.72780273 23.41035645 108.15384766 24.5 107.5625 C25.61366943 106.97049805 26.72733887 106.37849609 27.87475586 105.76855469 C31.25795696 103.96450149 34.63067819 102.142325 38 100.3125 C38.92441895 99.81105469 39.84883789 99.30960937 40.80126953 98.79296875 C44.27039358 96.90744821 47.7361977 95.01603607 51.19750977 93.11621094 C59.40824339 88.61362116 67.66707938 84.20415276 75.9375 79.8125 C76.61878967 79.45063599 77.30007935 79.08877197 78.00201416 78.71594238 C88.09412854 73.3583224 98.20871753 68.04550967 108.36108398 62.80273438 C109.23063721 62.35220703 110.10019043 61.90167969 110.99609375 61.4375 C111.75075928 61.04820312 112.5054248 60.65890625 113.28295898 60.2578125 C114.97548273 59.42981949 114.97548273 59.42981949 116 58.3125 C117.8125 58.1796875 117.8125 58.1796875 120 58.1875 C120.721875 58.18492187 121.44375 58.18234375 122.1875 58.1796875 C124 58.3125 124 58.3125 125 59.3125 C125.30078125 61.6640625 125.30078125 61.6640625 125 64.3125 C121.33995771 68.41536222 116.1261843 71.26863808 111.48046875 74.16015625 C102.22489862 80.02292208 93.1976501 86.23489993 84.125 92.375 C80.44069982 94.86676745 76.75576758 97.35759729 73.0703125 99.84765625 C72.15960999 100.46305267 71.24890747 101.0784491 70.31060791 101.7124939 C62.96618422 106.67073031 55.59915007 111.59448175 48.22024536 116.50123596 C41.68285315 120.84932123 35.17042067 125.23351611 28.67295837 129.64103699 C25.18757503 131.99920676 21.94509924 133.79806651 18 135.3125 C17.37907282 137.12546615 17.37907282 137.12546615 17 139.3125 C13.90228708 145.1362003 9.31572828 148.99101731 2.984375 150.9296875 C-3.16439386 152.11586732 -7.7428518 151.59592985 -13.17578125 148.5859375 C-17.21923173 145.76331468 -20.16126722 141.88534847 -22 137.3125 C-22.85607301 130.62854537 -23.3445288 124.17397312 -19.1875 118.5625 C-17.21546055 116.32265272 -15.52329824 114.99469882 -13 113.3125 C-12.43036218 111.19809269 -12.43036218 111.19809269 -12.33984375 108.69970703 C-12.26956467 107.73365036 -12.19928558 106.76759369 -12.12687683 105.77226257 C-12.06438248 104.71561905 -12.00188812 103.65897552 -11.9375 102.5703125 C-11.86102737 101.47149246 -11.78455475 100.37267242 -11.70576477 99.24055481 C-11.45771424 95.64027723 -11.22897403 92.0390366 -11 88.4375 C-10.74861315 84.72191483 -10.49242078 81.00667944 -10.23616028 77.29142761 C-10.06551409 74.81059647 -9.8965622 72.32964821 -9.72929382 69.84858704 C-9.03841406 59.63813334 -8.20757457 49.44425853 -7.3125 39.25 C-6.40580099 28.8810162 -5.61842442 18.52681345 -5.37817383 8.11694336 C-5.14692804 0.53613834 -5.14692804 0.53613834 0 0 Z " fill="#3DA7E2" transform="translate(769,384.6875)"/>
<path d="M0 0 C6.41762562 5.77165017 10.81070996 13.23730395 11.546875 21.90625 C11.98451906 32.19249832 10.7820106 40.84930806 4.41015625 49.23046875 C-2.7231811 56.90833567 -12.68374341 60.98875808 -22.97265625 61.68359375 C-38.60956282 61.9187352 -50.30409318 57.59491028 -61.73046875 46.94921875 C-68.71842832 39.22825643 -71.58910937 29.16677826 -71.40234375 18.9296875 C-70.30498748 10.27820905 -65.51108742 2.98665807 -59.16796875 -2.8359375 C-40.89501062 -16.79984699 -17.43599822 -13.48430081 0 0 Z " fill="#B6D48B" transform="translate(317.96484375,538.51953125)"/>
<path d="M0 0 C13.94889822 8.20278492 26.19988587 20.04037649 34.125 34.1875 C34.125 34.8475 34.125 35.5075 34.125 36.1875 C27.77941441 36.23905639 21.43388454 36.27358396 15.08813477 36.29736328 C12.93837466 36.30729733 10.7886276 36.32084914 8.63891602 36.33837891 C-20.82689829 36.57228918 -20.82689829 36.57228918 -34.34179688 33.6550293 C-38.10016965 32.96138205 -41.86269368 32.83502733 -45.67578125 32.65234375 C-46.51215622 32.60936661 -47.34853119 32.56638947 -48.21025085 32.52210999 C-50.86917166 32.38627562 -53.52831584 32.25556669 -56.1875 32.125 C-57.99545987 32.03354174 -59.80340283 31.94174859 -61.61132812 31.84960938 C-66.03236564 31.62502664 -70.45361052 31.40503882 -74.875 31.1875 C-72.59138551 25.21316422 -68.94783231 21.07357642 -64.875 16.1875 C-63.98869306 15.09056248 -63.10330841 13.99287925 -62.21875 12.89453125 C-44.52410352 -8.85194191 -25.15906 -12.95212539 0 0 Z " fill="#4BADE3" transform="translate(443.875,456.8125)"/>
<path d="M0 0 C0.33 0 0.66 0 1 0 C0.98428955 0.8751123 0.9685791 1.75022461 0.95239258 2.65185547 C0.48242197 32.82912399 2.37142655 63.02592156 22.234375 87.78515625 C24 90 24 90 24 92 C-1.52625008 92.14912873 -27.0399902 91.90482975 -52.5625 91.5 C-53.31661919 91.48804218 -54.07073837 91.47608437 -54.84770966 91.46376419 C-64.23189579 91.31447339 -73.6159861 91.1597749 -83 91 C-83 90.67 -83 90.34 -83 90 C-72.77 90 -62.54 90 -52 90 C-51.34 88.35 -50.68 86.7 -50 85 C-49.17190123 83.48434445 -48.30939641 81.9871083 -47.41796875 80.5078125 C-46.90468018 79.64953857 -46.3913916 78.79126465 -45.86254883 77.90698242 C-45.30978271 76.98892822 -44.7570166 76.07087402 -44.1875 75.125 C-39.45819224 67.20220084 -34.83055538 59.23263173 -30.3125 51.1875 C-24.98748147 41.72237818 -19.58281971 32.31549679 -14 23 C-13.41444336 22.02272949 -12.82888672 21.04545898 -12.22558594 20.03857422 C-10.30170431 16.83487606 -8.37090487 13.63545881 -6.4375 10.4375 C-5.81689697 9.40625 -5.19629395 8.375 -4.55688477 7.3125 C-3.69148071 5.88744141 -3.69148071 5.88744141 -2.80859375 4.43359375 C-2.29095459 3.57822021 -1.77331543 2.72284668 -1.23999023 1.84155273 C-0.62619507 0.92998413 -0.62619507 0.92998413 0 0 Z " fill="#B7DEF5" transform="translate(1039,656)"/>
<path d="M0 0 C4.38839691 2.62125722 7.5439718 5.69980466 10.375 9.9375 C10.7875 10.54464844 11.2 11.15179687 11.625 11.77734375 C14.88119827 17.30609706 15.24019954 22.64513968 14.375 28.9375 C12.71739431 35.17789788 10.41598134 39.75717401 5.375 43.9375 C4.55 44.659375 3.725 45.38125 2.875 46.125 C-4.20163604 51.25556113 -13.21555319 51.00583545 -21.625 49.9375 C-24.90373424 48.79584002 -27.12322374 47.31613183 -29.625 44.9375 C-30.57375 44.07125 -31.5225 43.205 -32.5 42.3125 C-34.625 39.9375 -34.625 39.9375 -36.625 36.9375 C-39.53940699 36.27028464 -39.53940699 36.27028464 -42.625 36.9375 C-44.89377535 39.35630929 -44.89377535 39.35630929 -46.625 41.9375 C-47.285 41.9375 -47.945 41.9375 -48.625 41.9375 C-49.59071566 39.16106747 -50.01851346 37.79941605 -49.625 34.9375 C-47.78076831 32.27409651 -45.69554123 29.92889085 -43.5625 27.4921875 C-41.16447342 24.33027342 -40.56587471 21.8102369 -39.96484375 17.9609375 C-38.81774639 11.13109345 -33.90323941 5.72540445 -28.796875 1.3828125 C-20.67589618 -4.10349762 -8.77051636 -3.99383574 0 0 Z " fill="#B7D58D" transform="translate(1347.625,583.0625)"/>
<path d="M0 0 C0 12.09533379 -16.19087368 30.39519619 -24.40527344 38.69335938 C-25.77346585 40.02452229 -27.1599503 41.336803 -28.546875 42.6484375 C-30.72440671 44.73581662 -32.64401494 46.86559519 -34.5625 49.1875 C-38.47677998 53.79871275 -43.19370842 57.36385184 -48 61 C-47.37872658 64.93592612 -46.15823917 68.09870724 -44.41796875 71.67578125 C-43.89783203 72.75150391 -43.37769531 73.82722656 -42.84179688 74.93554688 C-42.29587891 76.04994141 -41.74996094 77.16433594 -41.1875 78.3125 C-40.65318359 79.41529297 -40.11886719 80.51808594 -39.56835938 81.65429688 C-37.29051251 86.34727781 -34.99179485 91.02520245 -32.61328125 95.66796875 C-31 99 -31 99 -31 101 C-35.7144321 101.61613069 -40.12235512 102.18041784 -44.27880859 99.56738281 C-46.40804211 97.52228628 -48.30387866 95.39817228 -50.1875 93.125 C-50.87021973 92.3501123 -51.55293945 91.57522461 -52.25634766 90.77685547 C-54.20650085 88.54538092 -56.10977468 86.2822992 -58 84 C-58.48259277 83.42636719 -58.96518555 82.85273437 -59.46240234 82.26171875 C-62.51110594 78.62722266 -65.36875815 74.94686277 -68 71 C-68.77601563 71.38671875 -69.55203125 71.7734375 -70.3515625 72.171875 C-78.4178549 76.06063649 -86.30345374 78.80991622 -95 81 C-96.14855469 81.30550781 -96.14855469 81.30550781 -97.3203125 81.6171875 C-109.99473552 84.74964946 -123.00564475 85.33261054 -135.99584961 85.26074219 C-138.35620572 85.24979734 -140.71583536 85.26083223 -143.07617188 85.2734375 C-144.58854333 85.27211929 -146.10091435 85.26956397 -147.61328125 85.265625 C-148.3131868 85.26967346 -149.01309235 85.27372192 -149.73420715 85.27789307 C-153.38247387 85.24244634 -154.87609962 85.08260025 -158 83 C-157.04867187 82.93683594 -156.09734375 82.87367188 -155.1171875 82.80859375 C-134.14469758 81.09193853 -112.45979254 76.05851793 -93 68 C-92.29053223 67.71044434 -91.58106445 67.42088867 -90.85009766 67.12255859 C-65.71807528 56.74826165 -42.72840024 42.35636056 -22.91015625 23.71875 C-20.09233146 21.08625865 -17.20859748 18.54566565 -14.3125 16 C-8.90954048 11.11534765 -4.44085541 5.7676295 0 0 Z " fill="#2A96D9" transform="translate(942,654)"/>
<path d="M0 0 C17.68375767 11.31001066 25.70802907 28.98548812 31.1875 48.5625 C31.46464844 49.4803125 31.74179688 50.398125 32.02734375 51.34375 C32.1875 53.5625 32.1875 53.5625 30.97265625 55.58203125 C30.40417969 56.17371094 29.83570313 56.76539063 29.25 57.375 C28.68410156 57.97957031 28.11820313 58.58414063 27.53515625 59.20703125 C26.86806641 59.87798828 26.86806641 59.87798828 26.1875 60.5625 C24.1875 59.5625 24.1875 59.5625 23.58203125 57.8125 C23.38996094 57.07 23.19789062 56.3275 23 55.5625 C19.97331996 46.02845787 12.13435894 37.83242529 3.4453125 33.0546875 C-9.14838548 27.0820665 -23.14113134 26.85012856 -36.359375 31.00390625 C-39.0137057 31.60831595 -40.29981289 31.54526346 -42.8125 30.5625 C-45.625 28.4375 -45.625 28.4375 -47.8125 25.5625 C-47.91531355 20.3190087 -45.87914016 15.80774185 -43.83203125 11.0625 C-42.77727755 8.62822944 -42.77727755 8.62822944 -42.19921875 6.25 C-41.625 4.125 -41.625 4.125 -39.8125 0.5625 C-36.93923396 -1.05046021 -34.00949666 -1.72167415 -30.8125 -2.4375 C-29.69875 -2.829375 -28.585 -3.22125 -27.4375 -3.625 C-17.75597568 -5.79499683 -8.66940126 -4.73000352 0 0 Z " fill="#9DCFE7" transform="translate(1272.8125,557.4375)"/>
<path d="M0 0 C1.7634375 0.495 1.7634375 0.495 3.5625 1 C11.02257306 2.66307361 21.18087026 3.89448076 28 0 C33.18205752 -0.48887335 37.60501676 0.12264442 42 3 C43.64683259 5.44265645 44.7889642 7.41844685 45.9375 10.0625 C46.23978516 10.69994141 46.54207031 11.33738281 46.85351562 11.99414062 C49 16.61321925 49 16.61321925 49 19 C48.25007278 19.01839432 47.50014557 19.03678864 46.72749329 19.05574036 C39.51056135 19.23481101 32.29404182 19.42515232 25.07771015 19.62686634 C21.37150771 19.7301005 17.66529958 19.82959894 13.95874023 19.91918945 C-24.60644388 18.14506717 -24.60644388 18.14506717 -58 28 C-69.16604832 30.51585512 -80.6288792 30.22032312 -92 30 C-92 29.67 -92 29.34 -92 29 C-91.27224365 28.89977539 -90.5444873 28.79955078 -89.79467773 28.69628906 C-82.46344815 27.68143471 -75.13789911 26.63190863 -67.81542969 25.55566406 C-65.3771421 25.20056152 -62.93776357 24.85282088 -60.49707031 24.51464844 C-57.34801246 24.07595981 -54.20549646 23.60494093 -51.0625 23.125 C-49.64505493 22.9379248 -49.64505493 22.9379248 -48.19897461 22.74707031 C-43.88731124 22.056319 -40.98020426 21.56217518 -38.15625 18.078125 C-37.4446875 17.06234375 -36.733125 16.0465625 -36 15 C-30.22200233 10.13326366 -24.66706107 8.02084039 -17.10546875 8.40234375 C-11.2953563 9.52051633 -4.53363944 12.1121959 -0.546875 16.65625 C1.83214077 18.72286976 4.10113391 18.52156634 7.1875 18.6875 C8.27417969 18.75324219 9.36085938 18.81898438 10.48046875 18.88671875 C11.31191406 18.92410156 12.14335937 18.96148438 13 19 C12.39671875 18.21496094 11.7934375 17.42992187 11.171875 16.62109375 C7.08541928 11.26342888 3.13081819 5.98939132 0 0 Z " fill="#BEE0F7" transform="translate(434,727)"/>
<path d="M0 0 C4.05454816 2.4660364 6.34322832 5.24505038 8.47265625 9.50390625 C8.44135892 11.29638949 8.37396396 13.08835078 8.28515625 14.87890625 C8.1418206 19.34852547 8.1418206 19.34852547 10.47265625 23.06640625 C11.13265625 23.54078125 11.79265625 24.01515625 12.47265625 24.50390625 C12.47265625 25.16390625 12.47265625 25.82390625 12.47265625 26.50390625 C13.13265625 26.83390625 13.79265625 27.16390625 14.47265625 27.50390625 C13.48265625 28.16390625 12.49265625 28.82390625 11.47265625 29.50390625 C10.74300259 32.06673367 10.74300259 32.06673367 10.47265625 34.50390625 C10.14265625 34.50390625 9.81265625 34.50390625 9.47265625 34.50390625 C9.47265625 32.52390625 9.47265625 30.54390625 9.47265625 28.50390625 C8.83328125 28.19453125 8.19390625 27.88515625 7.53515625 27.56640625 C5.47265625 26.50390625 5.47265625 26.50390625 4.47265625 25.50390625 C2.63106809 25.54629033 0.78942152 25.59418057 -1.05102539 25.67163086 C-12.0593059 26.06734185 -20.51601489 24.15566993 -29.15234375 16.87890625 C-32.6319642 13.63419688 -34.42065737 11.4640837 -34.96484375 6.56640625 C-34.87916101 3.23089965 -34.72146281 2.71466409 -32.33984375 0.12890625 C-22.11431861 -5.77917494 -10.51869535 -4.96912795 0 0 Z " fill="#B3D389" transform="translate(407.52734375,677.49609375)"/>
<path d="M0 0 C4.42236538 1.64949963 7.27664271 4.24047484 10.5 7.625 C12.93936643 13.11357447 13.01204344 18.58293198 11.3046875 24.34765625 C9.20485752 29.0678623 6.65619583 31.57489801 2 34 C-3.84842369 35.79578155 -9.87371961 36.06314019 -15.375 33.3125 C-19.64825385 29.54796685 -23.5119747 25.43887592 -24.3359375 19.6328125 C-24.42577156 13.8654658 -23.96965281 10.49197555 -20 6 C-13.56700249 -0.03914052 -8.74855926 -0.9647534 0 0 Z " fill="#B8D58E" transform="translate(1133,306)"/>
<path d="M0 0 C1.79296875 1.33203125 1.79296875 1.33203125 3 3 C3.12841896 9.54936707 0.21753092 13.36847831 -4 18 C-11.65601624 25.88078002 -23.91280319 36.80185932 -35.28125 38.30078125 C-39.93229406 38.32534662 -43.3817767 38.27901487 -47 35 C-47.8125 32.3125 -47.8125 32.3125 -48 30 C-48.99 29.67 -49.98 29.34 -51 29 C-51.625 26.625 -51.625 26.625 -52 24 C-49.64692187 21.64692187 -48.40319353 21.45371025 -45.1875 20.8125 C-44.33542969 20.63332031 -43.48335937 20.45414063 -42.60546875 20.26953125 C-40 20 -40 20 -37.4765625 20.6640625 C-34.9057687 21.26879471 -34.9057687 21.26879471 -32.60546875 19.62890625 C-31.80753906 18.94699219 -31.00960938 18.26507812 -30.1875 17.5625 C-29.31867188 16.82515625 -28.44984375 16.0878125 -27.5546875 15.328125 C-25.23566379 13.21476395 -23.00913554 11.05187164 -20.8125 8.8125 C-14.47752428 2.40165631 -9.59425742 -2.01278128 0 0 Z " fill="#CBE2B5" transform="translate(1302,704)"/>
<path d="M0 0 C6 3 12 6 18 9 C16.08247713 14.3243839 13.12843715 18.03360914 9.46240234 22.29394531 C8.37676622 23.56046038 7.30344992 24.83755758 6.23681641 26.12011719 C4.25365393 28.48590748 2.22608245 30.80687627 0.1875 33.125 C-0.4513916 33.89618164 -1.0902832 34.66736328 -1.74853516 35.46191406 C-4.65732697 38.68616947 -6.57724948 40.76596258 -10.96240234 41.48730469 C-13.68921329 41.49167108 -16.29789422 41.3531391 -19 41 C-18.37732114 36.63147038 -16.71817365 33.04502305 -14.7265625 29.16015625 C-14.23994644 28.1932914 -14.23994644 28.1932914 -13.74349976 27.20689392 C-12.70962954 25.15586085 -11.66749685 23.10915953 -10.625 21.0625 C-9.93173602 19.69103594 -9.23902217 18.31929365 -8.546875 16.94726562 C-7.26854064 14.41500429 -5.98698326 11.88443359 -4.70166016 9.35571289 C-3.1230755 6.24270771 -1.55772744 3.12348441 0 0 Z " fill="#1D5B9C" transform="translate(643,714)"/>
<path d="M0 0 C2.58346968 2.58346968 3.91071643 5.57020416 5.5 8.8125 C6.01143555 9.84721436 6.01143555 9.84721436 6.53320312 10.90283203 C7.69590273 13.2651506 8.8491566 15.63188315 10 18 C10.44601562 18.91668457 10.89203125 19.83336914 11.3515625 20.77783203 C12.74052783 23.64063314 14.12181887 26.50699325 15.5 29.375 C15.94537109 30.29643799 16.39074219 31.21787598 16.84960938 32.16723633 C17.26017578 33.02728271 17.67074219 33.8873291 18.09375 34.7734375 C18.46177734 35.54091309 18.82980469 36.30838867 19.20898438 37.09912109 C20 39 20 39 20 41 C15.26319562 41.62953376 10.86627216 42.19123755 6.70507812 39.53515625 C4.56373234 37.45757773 2.64895421 35.30095056 0.75 33 C-0.23226562 31.88431641 -0.23226562 31.88431641 -1.234375 30.74609375 C-2.54167609 29.25462921 -3.83044216 27.74670257 -5.09960938 26.22265625 C-6.9720798 23.97883523 -6.9720798 23.97883523 -9.04101562 21.93359375 C-10.00297852 20.94552734 -10.00297852 20.94552734 -10.984375 19.9375 C-11.56413086 19.36902344 -12.14388672 18.80054688 -12.74121094 18.21484375 C-14 16 -14 16 -14 8 C-9.38 5.36 -4.76 2.72 0 0 Z " fill="#1C5A9A" transform="translate(891,714)"/>
<path d="M0 0 C2.4375 0.8125 2.4375 0.8125 5 2 C6 5 6 5 5.28735352 6.80932617 C4.71392212 7.79122925 4.71392212 7.79122925 4.12890625 8.79296875 C3.51499023 9.8612793 3.51499023 9.8612793 2.88867188 10.95117188 C2.45103516 11.68916016 2.01339844 12.42714844 1.5625 13.1875 C1.12873047 13.93708984 0.69496094 14.68667969 0.24804688 15.45898438 C-0.82557231 17.31127243 -1.91162681 19.1563425 -3 21 C4.9604911 21.20382481 12.33057658 21.30082703 20 19 C20.66 18.34 21.32 17.68 22 17 C25 16.75 25 16.75 28 17 C28.66 17.66 29.32 18.32 30 19 C29.67028521 22.29714793 29.3773161 23.6226839 27 26 C21.83492567 26.89506895 17.14902843 27.00562443 11.92578125 26.6484375 C0.14320408 25.66160826 0.14320408 25.66160826 -10.42089844 29.859375 C-13.91065451 33.78185424 -16.43225176 38.01486782 -18.97265625 42.5859375 C-21.11198344 46.25826249 -22.70395857 47.73028204 -26.74609375 49.1015625 C-28.92608065 49.65217417 -30.7547245 50 -33 50 C-31.72484896 47.28308411 -30.33669944 44.99704879 -28.453125 42.6640625 C-27.94450928 42.02259277 -27.43589355 41.38112305 -26.91186523 40.72021484 C-26.36344971 40.02879395 -25.81503418 39.33737305 -25.25 38.625 C-15.78524333 26.48918302 -7.52009465 13.42217383 0 0 Z " fill="#6AB57E" transform="translate(1286,675)"/>
<path d="M0 0 C3.0625 0.5 3.0625 0.5 5.4375 2.1875 C7.0625 4.5 7.0625 4.5 7.5625 7 C6.91115908 10.25670462 5.63068661 11.46055769 3.0625 13.5 C2.4025 13.5 1.7425 13.5 1.0625 13.5 C0.81242187 14.221875 0.56234375 14.94375 0.3046875 15.6875 C-3.16621129 23.54613876 -10.41491835 30.12580973 -16.1875 36.4375 C-16.68233887 36.98083984 -17.17717773 37.52417969 -17.68701172 38.08398438 C-20.56872786 41.19317894 -23.45282637 44.07359135 -26.9375 46.5 C-27.9275 46.5 -28.9175 46.5 -29.9375 46.5 C-29.86531158 30.09518186 -29.86531158 30.09518186 -25.484375 25.3125 C-23.48076572 23.47184785 -21.34327302 21.82685405 -19.19140625 20.1640625 C-15.63126135 17.40666435 -13.04011488 14.16815486 -10.375 10.5625 C-9.19744141 8.97115234 -9.19744141 8.97115234 -7.99609375 7.34765625 C-6.75590337 5.63209877 -5.53274123 3.90377445 -4.34375 2.15234375 C-2.9375 0.5 -2.9375 0.5 0 0 Z " fill="#C6E3F6" transform="translate(1217.9375,704.5)"/>
<path d="M0 0 C1.76098633 1.25341797 1.76098633 1.25341797 3.33203125 2.9921875 C4.18764648 3.92611328 4.18764648 3.92611328 5.06054688 4.87890625 C5.63869141 5.53761719 6.21683594 6.19632813 6.8125 6.875 C7.7087207 7.85146484 7.7087207 7.85146484 8.62304688 8.84765625 C13 13.69982143 13 13.69982143 13 16 C-5.48 16 -23.96 16 -43 16 C-40.38813546 13.38813546 -37.58458232 12.90324618 -34.125 11.9375 C-26.3123228 9.6583116 -19.06387018 6.47928962 -11.74072266 2.94702148 C-10.93554199 2.56618408 -10.13036133 2.18534668 -9.30078125 1.79296875 C-8.23597534 1.27512817 -8.23597534 1.27512817 -7.1496582 0.74682617 C-4.56251417 -0.15198968 -2.72107268 -0.33359828 0 0 Z " fill="#CFE7FA" transform="translate(877,729)"/>
<path d="M0 0 C8.8315386 4.25064403 8.8315386 4.25064403 11.67578125 7.74609375 C11.67578125 8.40609375 11.67578125 9.06609375 11.67578125 9.74609375 C10.58861816 9.82126221 9.50145508 9.89643066 8.38134766 9.97387695 C4.25423696 10.26157216 0.12802023 10.56077348 -3.99804688 10.86303711 C-5.76638535 10.99105944 -7.53493742 11.11617279 -9.30371094 11.23803711 C-18.75607199 11.89131462 -28.12953098 12.71701604 -37.48828125 14.2265625 C-38.25030853 14.34622879 -39.01233582 14.46589508 -39.79745483 14.58918762 C-43.99478979 15.25095718 -43.99478979 15.25095718 -47.32421875 17.74609375 C-58.49026707 20.26194887 -69.95309795 19.96641687 -81.32421875 19.74609375 C-81.32421875 19.41609375 -81.32421875 19.08609375 -81.32421875 18.74609375 C-80.5964624 18.64586914 -79.86870605 18.54564453 -79.11889648 18.44238281 C-71.7876669 17.42752846 -64.46211786 16.37800238 -57.13964844 15.30175781 C-54.70136085 14.94665527 -52.26198232 14.59891463 -49.82128906 14.26074219 C-46.67223121 13.82205356 -43.52971521 13.35103468 -40.38671875 12.87109375 C-39.44175537 12.74637695 -38.49679199 12.62166016 -37.52319336 12.49316406 C-33.21152999 11.80241275 -30.30442301 11.30826893 -27.48046875 7.82421875 C-26.76890625 6.8084375 -26.05734375 5.79265625 -25.32421875 4.74609375 C-17.64154024 -1.72493183 -9.5024252 -3.58434605 0 0 Z " fill="#C4DEA8" transform="translate(423.32421875,737.25390625)"/>
<path d="M0 0 C3.28104281 1.3881335 5.67969817 3.38090859 8.34375 5.71875 C10.0899688 7.06959851 11.8228717 7.92911114 13.8125 8.875 C17 11 17 11 18.1875 14.5 C18 18 18 18 16.3359375 20.17578125 C12.70539823 23.01100172 9.72288053 22.72525904 5.24609375 22.59375 C-0.39772259 21.5614274 -4.52208901 18.43944808 -9 15 C-9.763125 14.49082031 -10.52625 13.98164062 -11.3125 13.45703125 C-11.869375 12.97621094 -12.42625 12.49539063 -13 12 C-13 11.01 -13 10.02 -13 9 C-10.41015625 6.9921875 -10.41015625 6.9921875 -7.0625 4.875 C-3.34540606 2.68117914 -3.34540606 2.68117914 0 0 Z " fill="#CAE0AF" transform="translate(1222,607)"/>
<path d="M0 0 C2.75006355 0.6190208 5.17819428 1.44530637 7.73046875 2.63671875 C8.79998779 3.12785156 8.79998779 3.12785156 9.89111328 3.62890625 C10.6489209 3.97824219 11.40672852 4.32757812 12.1875 4.6875 C20.95487104 8.66824342 29.8727854 11.94989284 39 15 C39 15.33 39 15.66 39 16 C22.5 16 6 16 -11 16 C-9.94075536 11.76302142 -8.96395299 10.53832951 -6.0625 7.4375 C-3.7977281 5.00009576 -1.85094938 2.77642407 0 0 Z " fill="#CEE5F3" transform="translate(658,728)"/>
<path d="M0 0 C5.67186491 3.06280705 9.36700334 7.31260786 11.328125 13.45703125 C11.59109375 14.52308594 11.8540625 15.58914063 12.125 16.6875 C9.37744513 17.38638677 6.62768803 18.0718988 3.875 18.75 C3.09769531 18.94916016 2.32039063 19.14832031 1.51953125 19.35351562 C0.76542969 19.53720703 0.01132813 19.72089844 -0.765625 19.91015625 C-1.45688477 20.08297119 -2.14814453 20.25578613 -2.86035156 20.43383789 C-6.71657961 20.91937121 -8.60766654 19.88948528 -11.6875 17.5625 C-13.875 14.6875 -13.875 14.6875 -14 11.1875 C-12.36896132 6.11315745 -9.5031314 3.98165573 -5.4375 0.75 C-2.875 -0.3125 -2.875 -0.3125 0 0 Z " fill="#B0D8ED" transform="translate(1238.875,568.3125)"/>
<path d="M0 0 C2.4375 0.3125 2.4375 0.3125 4.4375 2.3125 C4.8046875 4.6875 4.8046875 4.6875 4.4375 7.3125 C2.7578125 9.375 2.7578125 9.375 0.5625 11.3125 C-2.60203061 14.1254161 -4.22886256 16.26947283 -5.5625 20.3125 C-3.79075181 20.22526622 -2.02002623 20.11708345 -0.25 20 C0.73613281 19.94199219 1.72226563 19.88398437 2.73828125 19.82421875 C5.78002481 19.24756404 6.38131029 18.47413533 8.4375 16.3125 C14.88194444 16.75694444 14.88194444 16.75694444 16.4375 18.3125 C16.625 21.25 16.625 21.25 16.4375 24.3125 C14.4375 26.3125 14.4375 26.3125 11.4375 26.5625 C8.4375 26.3125 8.4375 26.3125 6.4375 24.3125 C3.92350949 24.03284063 1.57893802 23.89644691 -0.9375 23.875 C-1.61039063 23.84212891 -2.28328125 23.80925781 -2.9765625 23.77539062 C-5.24149834 23.69663782 -5.24149834 23.69663782 -8.5625 24.3125 C-10.93229998 26.72372579 -10.93229998 26.72372579 -12.5625 29.3125 C-13.2225 29.3125 -13.8825 29.3125 -14.5625 29.3125 C-15.52821566 26.53606747 -15.95601346 25.17441605 -15.5625 22.3125 C-13.71926492 19.6505358 -11.63737939 17.30943316 -9.5 14.87890625 C-7.0992831 11.69892439 -6.4438079 9.12562546 -6.01171875 5.22265625 C-5.19475223 1.74877254 -3.46116196 0.42209292 0 0 Z " fill="#67B381" transform="translate(1313.5625,595.6875)"/>
<path d="M0 0 C0 2.25 0 2.25 -1 5 C-3.47891293 6.76800274 -6.18961091 7.85612234 -9 9 C-9.61101562 9.2784375 -10.22203125 9.556875 -10.8515625 9.84375 C-23.55013442 15.24739762 -42.63204409 16.48123852 -56 13 C-56 12.34 -56 11.68 -56 11 C-55.18023682 10.87471924 -54.36047363 10.74943848 -53.51586914 10.62036133 C-29.44136009 7.65446056 -29.44136009 7.65446056 -6.7421875 -0.16796875 C-4.26315837 -1.3518997 -2.57599639 -0.71555455 0 0 Z " fill="#2DA17B" transform="translate(1157,732)"/>
<path d="M0 0 C1.83111328 -0.03867187 1.83111328 -0.03867187 3.69921875 -0.078125 C7.6117114 0.27717163 9.98963817 1.19180946 13.3125 3.25 C14.5 5.4375 14.5 5.4375 14.3125 8.25 C12.86967702 11.08298818 11.16356919 13.66875127 9.3125 16.25 C2.35199792 13.56409197 -3.82937868 10.90986923 -9.6875 6.25 C-7.3166576 0.08580975 -6.70562179 0.08408303 0 0 Z " fill="#2590D8" transform="translate(652.6875,707.75)"/>
<path d="M0 0 C6.52637647 0 11.05379821 2.89633759 16 7 C17.9375 9.625 17.9375 9.625 19 12 C20.32110409 15.1463391 20.32110409 15.1463391 23 17 C22.01 17.66 21.02 18.32 20 19 C19.27034634 21.56282742 19.27034634 21.56282742 19 24 C18.67 24 18.34 24 18 24 C18 22.02 18 20.04 18 18 C17.360625 17.690625 16.72125 17.38125 16.0625 17.0625 C14 16 14 16 13 15 C10.13732433 14.92674832 7.299281 14.90761795 4.4375 14.9375 C3.63119141 14.94201172 2.82488281 14.94652344 1.99414062 14.95117188 C-0.00393756 14.96299482 -2.00197783 14.98093086 -4 15 C-4 14.67 -4 14.34 -4 14 C-0.535 13.505 -0.535 13.505 3 13 C2.55527344 12.62488281 2.11054688 12.24976563 1.65234375 11.86328125 C-0.05885782 10.31579372 -1.59217672 8.82973974 -3 7 C-3 3.49411744 -2.47626902 2.47626902 0 0 Z " fill="#C5DEB9" transform="translate(399,688)"/>
<path d="M0 0 C4.06695259 -0.50836907 6.65031512 -0.82414387 10.20703125 1.34765625 C15.5407336 5.85013226 18.63588113 9.77494717 19.4375 16.875 C19.20396974 22.18527506 17.15591235 26.60790624 13.609375 30.54296875 C8.1840936 35.41144495 2.590982 36.47573644 -4.47265625 36.31640625 C-12.17417466 35.35222852 -17.0295142 30.58506907 -21.8125 24.8125 C-23.6420589 20.47933419 -23.99072774 16.61176784 -23 12 C-21.11833129 8.8073326 -19.00518116 6.18669686 -16 4 C-14.68 4 -13.36 4 -12 4 C-12 4.66 -12 5.32 -12 6 C-13.1446875 6.6496875 -13.1446875 6.6496875 -14.3125 7.3125 C-17.44741023 9.28093201 -18.53764931 10.61350368 -20 14 C-20.81489061 19.39865027 -19.62952395 22.82354272 -16.61328125 27.19921875 C-12.81577495 31.43808171 -8.59878143 32.79698014 -3.0625 33.5 C3.01190725 33.1525487 8.32943432 30.75409397 12.5 26.375 C15.50146132 21.62268624 15.85057832 17.5621151 15 12 C11.9228902 5.76356753 6.27867686 3.24637105 0 1 C0 0.67 0 0.34 0 0 Z " fill="#86BD79" transform="translate(291,546)"/>
<path d="M0 0 C2.4375 1.6875 2.4375 1.6875 4 4 C4.52487013 6.99925788 4.23370853 8.50508782 2.9375 11.25 C0.01698822 13.88788161 -2.11366864 14.06700571 -6 14 C-9.14799562 11.72272657 -10.72101232 10.27094386 -11.5625 6.4375 C-10.10604564 0.12619778 -5.94161222 -0.84880175 0 0 Z " fill="#5DB4E5" transform="translate(600,510)"/>
<path d="M0 0 C2.5 1.5625 2.5 1.5625 4 4 C4 7.77684879 3.78395245 10.03513544 1.375 13 C-2.07663304 14.45331917 -4.42809484 13.92604949 -8 13 C-10.46324069 9.30513897 -10.38991688 7.36706908 -10 3 C-7.7773391 -1.05308751 -4.20075589 -0.5158823 0 0 Z " fill="#5FB3E6" transform="translate(941,510)"/>
<path d="M0 0 C2.375 1.625 2.375 1.625 4 4 C4.60975382 7.65852292 4.44543026 9.30512879 2.4375 12.4375 C0 14 0 14 -3.5625 14 C-7 13 -7 13 -9 11.375 C-10.45331917 7.92336696 -9.92604949 5.57190516 -9 2 C-5.50875983 -0.32749345 -4.10777749 -0.50299316 0 0 Z " fill="#7BCABF" transform="translate(366,578)"/>
<path d="M0 0 C2.73018058 2.45016206 3.83353574 4.00121445 4.4375 7.625 C4 10 4 10 3 11.8125 C-0.20142545 13.71334636 -3.38321733 13.67061179 -7 13 C-9.7286109 10.78300364 -9.94936082 9.41355329 -10.375 5.9375 C-10 3 -10 3 -8.9375 1.125 C-5.81247137 -0.68953275 -3.52644482 -0.49493962 0 0 Z " fill="#7AC9B8" transform="translate(528,710)"/>
<path d="M0 0 C2.4375 1.5625 2.4375 1.5625 4 4 C3.9375 7.625 3.9375 7.625 3 11 C-0.49124017 13.32749345 -1.89222251 13.50299316 -6 13 C-8.7912125 11.01677007 -9.82597224 9.87013879 -10.5 6.5 C-9.33827182 0.69135908 -5.5534724 -0.92557873 0 0 Z " fill="#49ADE5" transform="translate(686,662)"/>
<path d="M0 0 C1.875 1.0625 1.875 1.0625 3 3 C3.36528977 6.4093712 3.6140629 8.88023824 1.9375 11.9375 C-1.15493758 13.63335287 -3.55514741 13.43060657 -7 13 C-9.38460953 10.92308202 -9.8959746 9.59443084 -10.4375 6.5 C-9.40858438 0.62048215 -5.51867775 -0.82193073 0 0 Z " fill="#4AAAE0" transform="translate(853,662)"/>
<path d="M0 0 C4.52451299 1.44399351 4.52451299 1.44399351 5.9375 3.9375 C5.8125 7.5 5.8125 7.5 4.9375 10.9375 C1.46826119 13.25032587 0.01544425 13.36228586 -4.0625 12.9375 C-5.9375 11.8125 -5.9375 11.8125 -7.0625 9.9375 C-7.60650387 6.28490261 -7.50024093 4.5941114 -5.4375 1.5 C-3.0625 -0.0625 -3.0625 -0.0625 0 0 Z " fill="#5BB5E6" transform="translate(768.0625,683.0625)"/>
<path d="M0 0 C6.44444444 0.44444444 6.44444444 0.44444444 8 2 C8.1875 4.9375 8.1875 4.9375 8 8 C6 10 6 10 3 10.25 C0 10 0 10 -2 8 C-4.36509361 7.69940057 -6.74441881 7.50484988 -9.125 7.375 C-10.40632813 7.30023437 -11.68765625 7.22546875 -13.0078125 7.1484375 C-14.48894531 7.07496094 -14.48894531 7.07496094 -16 7 C-15.34 5.68 -14.68 4.36 -14 3 C-12.86111328 3.05220703 -12.86111328 3.05220703 -11.69921875 3.10546875 C-10.70535156 3.13253906 -9.71148438 3.15960937 -8.6875 3.1875 C-7.70136719 3.22230469 -6.71523437 3.25710938 -5.69921875 3.29296875 C-2.54430124 2.95053921 -2.07778054 2.23169021 0 0 Z " fill="#71B985" transform="translate(1322,612)"/>
<path d="M0 0 C3.4375 0.875 3.4375 0.875 5.4375 3.875 C5.95069996 7.21079974 5.75972026 8.43343891 3.75 11.1875 C1.4375 12.875 1.4375 12.875 -1.0625 13.4375 C-3.5625 12.875 -3.5625 12.875 -5.9375 10.6875 C-7.5625 7.875 -7.5625 7.875 -7.5 5.25 C-5.76103437 0.8446204 -4.93283168 -0.17308181 0 0 Z " fill="#56B3E6" transform="translate(850.5625,361.125)"/>
<path d="M0 0 C2.375 1.625 2.375 1.625 4 4 C4 7.55053329 3.64301849 9.28808667 1.25 11.9375 C-1 13 -1 13 -3.5625 12.875 C-7.52941176 11.45098039 -7.52941176 11.45098039 -9 9 C-8.875 5.4375 -8.875 5.4375 -8 2 C-4.75173326 -0.16551116 -3.76905843 -0.55156953 0 0 Z " fill="#56B2E6" transform="translate(686,361)"/>
<path d="M0 0 C2 2 2 2 2.375 5.4375 C2 9 2 9 0.375 11 C-2.81179601 12.34180884 -4.71109893 11.92947204 -8 11 C-10 9 -10 9 -10.3125 5.5625 C-10 2 -10 2 -8.9375 0 C-5.80557344 -1.61647822 -3.32814714 -0.78665296 0 0 Z " fill="#52AEE2" transform="translate(771,339)"/>
<path d="M0 0 C2 2 2 2 2.375 5.4375 C2 9 2 9 0.375 11 C-2.81179601 12.34180884 -4.71109893 11.92947204 -8 11 C-10 9 -10 9 -10.375 5.5625 C-10 2 -10 2 -8.375 0 C-5.18820399 -1.34180884 -3.28890107 -0.92947204 0 0 Z " fill="#4CAAE0" transform="translate(918,598)"/>
<path d="M0 0 C2.9375 0.75 2.9375 0.75 4.9375 2.75 C5.3125 6.1875 5.3125 6.1875 4.9375 9.75 C3.3125 11.75 3.3125 11.75 0.9375 12.75 C-2.1875 12.625 -2.1875 12.625 -5.0625 11.75 C-7.0625 8.75 -7.0625 8.75 -6.875 5.1875 C-5.81721331 0.71224863 -4.63605151 -0.37845318 0 0 Z " fill="#50AFE5" transform="translate(620.0625,597.25)"/>
<path d="M0 0 C1.875 1.125 1.875 1.125 3 3 C3.39365568 6.14924548 3.52854531 8.11909116 1.875 10.875 C-0.88090884 12.52854531 -2.85075452 12.39365568 -6 12 C-7.875 10.9375 -7.875 10.9375 -9 9 C-9.375 5.4375 -9.375 5.4375 -9 2 C-5.53076119 -0.31282587 -4.07794425 -0.42478586 0 0 Z " fill="#4AACE1" transform="translate(917,425)"/>
<path d="M0 0 C1.875 1.125 1.875 1.125 3 3 C3.39365568 6.14924548 3.52854531 8.11909116 1.875 10.875 C-0.88090884 12.52854531 -2.85075452 12.39365568 -6 12 C-7.875 10.875 -7.875 10.875 -9 9 C-9.39365568 5.85075452 -9.52854531 3.88090884 -7.875 1.125 C-5.11909116 -0.52854531 -3.14924548 -0.39365568 0 0 Z " fill="#4DADE4" transform="translate(622,425)"/>
<path d="M0 0 C3.125 0.375 3.125 0.375 5.5 2.0625 C7.125 4.375 7.125 4.375 7.6875 6.875 C6.89846174 10.38183673 5.02741012 11.41587317 2.125 13.375 C-1.52816671 12.12523244 -2.65565836 11.70401247 -4.875 8.375 C-5.125 5.3125 -5.125 5.3125 -4.875 2.375 C-2.875 0.375 -2.875 0.375 0 0 Z " fill="#D7E7D6" transform="translate(1217.875,704.625)"/>
<path d="M0 0 C4.455 0.99 4.455 0.99 9 2 C9 2.99 9 3.98 9 5 C10.78419151 7.11148638 12.5752152 9.08805858 14.5 11.0625 C20 16.74493243 20 16.74493243 20 19 C16.79296875 19.34765625 16.79296875 19.34765625 13 19 C10.48828125 16.62109375 10.48828125 16.62109375 8.3125 13.4375 C7.7412439 12.61910645 7.7412439 12.61910645 7.15844727 11.78417969 C4.53823685 7.98095752 2.13844962 4.09094709 0 0 Z " fill="#C5DCB7" transform="translate(434,727)"/>
<path d="M0 0 C0 0.33 0 0.66 0 1 C-1.27617187 1.19335938 -2.55234375 1.38671875 -3.8671875 1.5859375 C-5.53652576 1.84853004 -7.20579301 2.11157431 -8.875 2.375 C-10.13763672 2.56449219 -10.13763672 2.56449219 -11.42578125 2.7578125 C-12.23144531 2.88671875 -13.03710938 3.015625 -13.8671875 3.1484375 C-14.61081543 3.26364746 -15.35444336 3.37885742 -16.12060547 3.49755859 C-18.22614355 3.89248323 -18.22614355 3.89248323 -20 6 C-31.16604832 8.51585512 -42.6288792 8.22032312 -54 8 C-54 7.67 -54 7.34 -54 7 C-53.24082275 6.89453857 -52.48164551 6.78907715 -51.69946289 6.68041992 C-48.15335699 6.18594514 -44.60782998 5.68750842 -41.0625 5.1875 C-39.14570435 4.91728027 -39.14570435 4.91728027 -37.19018555 4.64160156 C-30.20175277 3.64319091 -23.24897688 2.56020542 -16.3125 1.25 C-10.74580103 0.22221626 -5.65029836 -0.30819809 0 0 Z " fill="#8ACB9C" transform="translate(396,749)"/>
<path d="M0 0 C-0.71027344 0.17015625 -1.42054687 0.3403125 -2.15234375 0.515625 C-3.07144531 0.75796875 -3.99054688 1.0003125 -4.9375 1.25 C-6.31228516 1.59804688 -6.31228516 1.59804688 -7.71484375 1.953125 C-10.14970243 2.76577764 -10.14970243 2.76577764 -10.875 4.9375 C-11.04154553 7.68550122 -10.16205631 9.53917488 -9 12 C-10.21705006 13.01471171 -11.44926884 14.0112461 -12.6875 15 C-13.37199219 15.556875 -14.05648438 16.11375 -14.76171875 16.6875 C-17.38783056 18.22741897 -19.00603356 18.25168194 -22 18 C-20.57161648 13.93687797 -18.60352958 10.78098171 -16.0625 7.3125 C-15.37285156 6.35988281 -14.68320313 5.40726563 -13.97265625 4.42578125 C-10.00705298 -0.45073287 -5.90779886 -1.66823195 0 0 Z " fill="#90C7A6" transform="translate(1262,724)"/>
<path d="M0 0 C2.48212484 4.60966042 4 8.72927515 4 14 C-0.29 14.66 -4.58 15.32 -9 16 C-7.81401556 11.25606225 -5.88151417 9.44945749 -2.59375 6 C-0.95345747 3.94159369 -0.41291936 2.56927601 0 0 Z " fill="#B5DEF5" transform="translate(1086,586)"/>
<path d="M0 0 C1.134375 0.020625 2.26875 0.04125 3.4375 0.0625 C2.05485163 2.93117231 0.51601447 5.62274032 -1.1875 8.3125 C-1.63351562 9.01890625 -2.07953125 9.7253125 -2.5390625 10.453125 C-3.04566406 11.24976563 -3.04566406 11.24976563 -3.5625 12.0625 C-5.2125 11.7325 -6.8625 11.4025 -8.5625 11.0625 C-9.375 8.875 -9.375 8.875 -9.5625 6.0625 C-7.1875 3.3125 -7.1875 3.3125 -4.5625 1.0625 C-3.5625 0.0625 -3.5625 0.0625 0 0 Z " fill="#CFE5B5" transform="translate(1244.5625,727.9375)"/>
<path d="M0 0 C8.91 0 17.82 0 27 0 C26.01 0.33 25.02 0.66 24 1 C24 1.66 24 2.32 24 3 C21.31243045 3.02720824 18.62514202 3.0469388 15.9375 3.0625 C15.18533203 3.07087891 14.43316406 3.07925781 13.65820312 3.08789062 C8.99366882 3.10808341 4.60076827 2.77595959 0 2 C0 1.34 0 0.68 0 0 Z " fill="#8BC267" transform="translate(1101,746)"/>
<path d="M0 0 C0.66 0 1.32 0 2 0 C2.125 2.875 2.125 2.875 2 6 C1.34 6.66 0.68 7.32 0 8 C-0.33 7.34 -0.66 6.68 -1 6 C-3.31 7.98 -5.62 9.96 -8 12 C-8.66 11.67 -9.32 11.34 -10 11 C-8.38150935 9.16053461 -6.75581169 7.32848583 -5.125 5.5 C-4.66480469 4.97535156 -4.20460938 4.45070313 -3.73046875 3.91015625 C-2.52827924 2.56858245 -1.26754054 1.28000815 0 0 Z " fill="#2D9878" transform="translate(1198,446)"/>
<path d="M0 0 C0.99 0.33 1.98 0.66 3 1 C1.76600937 2.36877116 0.51219377 3.71969166 -0.75 5.0625 C-1.79414062 6.19365234 -1.79414062 6.19365234 -2.859375 7.34765625 C-5 9 -5 9 -7.265625 8.74609375 C-7.83796875 8.49988281 -8.4103125 8.25367188 -9 8 C-2.92207792 1.75324675 -2.92207792 1.75324675 0 0 Z " fill="#299376" transform="translate(1207,496)"/>
<path d="M0 0 C0.33 0 0.66 0 1 0 C2.0735426 10.5309417 2.0735426 10.5309417 -0.55859375 14.1328125 C-2.30978411 15.59155055 -4.03123619 16.85490268 -6 18 C-6 17.01 -6 16.02 -6 15 C-4.7934375 14.2575 -4.7934375 14.2575 -3.5625 13.5 C0.37417398 9.65934246 -0.10049203 5.29867086 0 0 Z " fill="#67B8E7" transform="translate(757,487)"/>
<path d="M0 0 C0.99 0.33 1.98 0.66 3 1 C3 3.31 3 5.62 3 8 C2.01 8 1.02 8 0 8 C0 5.36 0 2.72 0 0 Z " fill="#2B9172" transform="translate(1099,532)"/>
<path d="M0 0 C2 2 2 2 2.125 4.625 C2.08375 5.40875 2.0425 6.1925 2 7 C-0.31 7 -2.62 7 -5 7 C-3.68 6.67 -2.36 6.34 -1 6 C-0.67 4.02 -0.34 2.04 0 0 Z " fill="#B6D8A1" transform="translate(1302,753)"/>
<path d="M0 0 C1.32 0 2.64 0 4 0 C4 0.66 4 1.32 4 2 C1.09451118 4.04169485 -0.40142046 5 -4 5 C-2.25 2.5 -2.25 2.5 0 0 Z " fill="#8FC07B" transform="translate(275,550)"/>
<path d="M0 0 C0 0.66 0 1.32 0 2 C-2.57213134 3.61949011 -3.67669159 4.04408751 -6.75 3.625 C-7.4925 3.41875 -8.235 3.2125 -9 3 C-5.73209435 0.82139623 -3.91954654 0 0 0 Z " fill="#C0E1F8" transform="translate(848,740)"/>
<path d="M0 0 C1.5 1.375 1.5 1.375 3 3 C3 3.66 3 4.32 3 5 C-0.3 5 -3.6 5 -7 5 C-7 4.67 -7 4.34 -7 4 C-4.69 4 -2.38 4 0 4 C0 2.68 0 1.36 0 0 Z " fill="#7BC5AB" transform="translate(490,741)"/>
<path d="M0 0 C1.32 0.66 2.64 1.32 4 2 C3.01 2.66 2.02 3.32 1 4 C0.27034634 6.56282742 0.27034634 6.56282742 0 9 C-0.33 9 -0.66 9 -1 9 C-1.09765625 2.84765625 -1.09765625 2.84765625 -1 1 C-0.67 0.67 -0.34 0.34 0 0 Z " fill="#BDD8C4" transform="translate(418,703)"/>
<path d="M0 0 C1.32 0.66 2.64 1.32 4 2 C3.01 3.485 3.01 3.485 2 5 C0.68 4.67 -0.64 4.34 -2 4 C-1.34 3.67 -0.68 3.34 0 3 C0 2.01 0 1.02 0 0 Z " fill="#67B285" transform="translate(436,668)"/>
</svg>
